<?xml version="1.0" standalone="no"?>
<!DOCTYPE svg PUBLIC "-//W3C//DTD SVG 1.1//EN" "http://www.w3.org/Graphics/SVG/1.1/DTD/svg11.dtd" >
<svg xmlns="http://www.w3.org/2000/svg">
<metadata>
<json>
<![CDATA[
{
	"fontFamily": "WFHVACSymbolsFont",
	"majorVersion": 2,
	"minorVersion": 2,
	"fontURL": "http://www.webfactory-i4.de/",
	"description": "WEBfactory HVAC symbols library font\nFont generated by IcoMoon.",
	"version": "Version 2.2",
	"fontId": "WFHVACSymbolsFont",
	"psName": "WFHVACSymbolsFont",
	"subFamily": "Regular",
	"fullName": "WFHVACSymbolsFont"
}
]]>
</json>
</metadata>
<defs>
<font id="WFHVACSymbolsFont" horiz-adv-x="1024">
<font-face units-per-em="1024" ascent="860.16" descent="-163.84" />
<missing-glyph horiz-adv-x="1024" />
<glyph unicode="&#x20;" horiz-adv-x="512" d="" />
<glyph unicode="&#xe600;" glyph-name="3-way-control-motor-part_bg" data-tags="3-way-control-motor-part_bg" d="M512 821.333c127.639 0 234.667-107.028 234.667-234.667s-107.027-234.667-234.667-234.667c-127.639 0-234.667 107.028-234.667 234.667s107.028 234.667 234.667 234.667z" />
<glyph unicode="&#xe601;" glyph-name="3-way-control-motor-part_fg" data-tags="3-way-control-motor-part_fg" d="M512 864c-153.167 0-277.333-124.166-277.333-277.333 0-145.868 112.97-264.936 256-276v-73.333h42.667v73.333c143.030 11.064 256 130.132 256 276 0 153.167-124.166 277.333-277.333 277.333zM512 821.333c127.639 0 234.667-107.028 234.667-234.667s-107.027-234.667-234.667-234.667c-127.639 0-234.667 107.028-234.667 234.667s107.028 234.667 234.667 234.667zM384 736v-298.667h42.667v213.333l85.333-60 86.667 60-1.333-213.333h42.667v298.667l-128-85.333z" />
<glyph unicode="&#xe602;" glyph-name="3-way-control-valve-part-bottom_bg" data-tags="3-way-control-valve-part-bottom_bg" d="M512 163.5l2.667-1.333 158.667-279.5h-324l160 279.5z" />
<glyph unicode="&#xe603;" glyph-name="3-way-control-valve-part-bottom_fg" data-tags="3-way-control-valve-part-bottom_fg" d="M490.667 237.333l-218.667-397.333h480l-218.667 397.333zM512 163.5l2.667-1.333 158.667-279.5h-324l160 279.5z" />
<glyph unicode="&#xe604;" glyph-name="3-way-control-valve-part-left_bg" data-tags="3-way-control-valve-part-left_bg" d="M128 369.333l324-161.333-324-158.667z" />
<glyph unicode="&#xe605;" glyph-name="3-way-control-valve-part-left_fg" data-tags="3-way-control-valve-part-left_fg" d="M490.667 237.333l-405.333 197.333v-454.667l405.256 201.333zM128 369.333l324-161.333-324-158.667z" />
<glyph unicode="&#xe606;" glyph-name="3-way-control-valve-part-right_bg" data-tags="3-way-control-valve-part-right_bg" d="M896 369.333v-321.333l-324 160z" />
<glyph unicode="&#xe607;" glyph-name="3-way-control-valve-part-right_fg" data-tags="3-way-control-valve-part-right_fg" d="M938.667-20v457.333l-405.333-200 0.070-56zM896 369.333v-321.333l-324 160z" />
<glyph unicode="&#xe608;" glyph-name="3-way-control-valve-part_bg" data-tags="3-way-control-valve-part_bg" d="M128 369.333v-320l324 158.667-324 161.333zM896 369.333l-324-161.333 324-160v321.333zM512 158.667l-2.667-1.333-160-274.667h324l-158.667 274.667-2.667 1.333z" />
<glyph unicode="&#xe609;" glyph-name="3-way-control-valve-part_fg" data-tags="3-way-control-valve-part_fg" d="M490.667 237.333l-405.333 197.333v-454.667l369.333 182.667-182.667-322.667h480l-182.667 322.667 369.333-182.667v457.333l-405.333-200zM128 369.333l324-161.333-324-158.667zM896 369.333v-321.333l-324 160zM512 158.667l2.667-1.333 158.667-274.667h-324l160 274.667z" />
<glyph unicode="&#xe60a;" glyph-name="3-way-control-valve_bg" data-tags="3-way-control-valve_bg" d="M512 821.333c-127.639 0-234.667-107.028-234.667-234.667s107.028-234.667 234.667-234.667c127.639 0 234.667 107.028 234.667 234.667s-107.027 234.667-234.667 234.667zM128 369.333v-320l324 158.667-324 161.333zM896 369.333l-324-161.333 324-160v321.333zM512 158.667l-2.667-1.333-160-274.667h324l-158.667 274.667-2.667 1.333z" />
<glyph unicode="&#xe60b;" glyph-name="3-way-control-valve_fg" data-tags="3-way-control-valve_fg" d="M512 864c-153.167 0-277.333-124.166-277.333-277.333 0-145.868 112.97-264.936 256-276v-73.333l-405.333 197.333v-454.667l369.333 182.667-182.667-322.667h480l-182.667 322.667 369.333-182.667v457.333l-405.333-200v73.333c143.030 11.064 256 130.132 256 276 0 153.167-124.166 277.333-277.333 277.333zM512 821.333c127.639 0 234.667-107.028 234.667-234.667s-107.027-234.667-234.667-234.667c-127.639 0-234.667 107.028-234.667 234.667s107.028 234.667 234.667 234.667zM384 736v-298.667h42.667v213.333l85.333-60 86.667 60-1.333-213.333h42.667v298.667l-128-85.333zM128 369.333l324-161.333-324-158.667zM896 369.333v-321.333l-324 160zM512 158.667l2.667-1.333 158.667-274.667h-324l160 274.667z" />
<glyph unicode="&#xe60c;" glyph-name="air-cooler-water_bg" data-tags="air-cooler-water_bg" d="M128 821.333h768v-938.667h-768z" />
<glyph unicode="&#xe60d;" glyph-name="air-cooler-water_fg" data-tags="air-cooler-water_fg" d="M85.333 864v-1024h30.667l4-2.667 2.667 2.667h778.667l2.667-2.667 4 2.667h30.667v1024h-853.333zM154.667 821.333h714.667l-357.333-437.333-357.333 437.333zM128 785.333l356-434.667-356-436v870.667zM896 785.333v-870.667l-356 436 356 434.667zM384 736v-42.667h256v42.667h-256zM512 316l354.667-433.333h-709.333l354.667 433.333z" />
<glyph unicode="&#xe60e;" glyph-name="air-heater-electric_bg" data-tags="air-heater-electric_bg" d="M128 821.333h768v-938.667h-768z" />
<glyph unicode="&#xe60f;" glyph-name="air-heater-electric_fg" data-tags="air-heater-electric_fg" d="M85.333 864v-1024h30.667l4-2.667 2.667 2.667h778.667l2.667-2.667 4 2.667h30.667v1024h-818.667zM128 821.333h741.333l-741.333-906.667zM896 785.333v-902.667h-738.667zM469.333 736v-85.333h-85.333v-42.667h85.333v-85.333h42.667v85.333h85.333v42.667h-85.333v85.333zM725.333 394.667l-213.333-256h170.667l-128-213.333 256 256h-170.667z" />
<glyph unicode="&#xe610;" glyph-name="air-heater-fire_bg" data-tags="air-heater-fire_bg" d="M128 821.333h768v-938.667h-768z" />
<glyph unicode="&#xe611;" glyph-name="air-heater-fire_fg" data-tags="air-heater-fire_fg" d="M85.333 864v-1024h816l2.667-2.667 4 2.667h30.667v1024h-818.667zM128 821.333h741.333l-741.333-906.667zM896 785.333v-902.667h-138.667l-245.333 298.667-9.333-10.667-16-20-220-268h-109.333zM469.333 736v-85.333h-85.333v-42.667h85.333v-85.333h42.667v85.333h85.333v42.667h-85.333v85.333zM512 121.333l196-238.667h-90.667l-105.333 128-9.333-10.667-16-20-80-97.333h-90.667zM512-49.333l56-68h-112z" />
<glyph unicode="&#xe612;" glyph-name="air-heater-steam_bg" data-tags="air-heater-steam_bg" d="M128 821.333h768v-938.667h-768z" />
<glyph unicode="&#xe613;" glyph-name="air-heater-steam_fg" data-tags="air-heater-steam_fg" d="M85.333 864v-1024h853.333v1024h-853.333zM128 821.333h741.333l-741.333-906.667v906.667zM896 785.333v-902.667h-738.667l738.667 902.667zM469.333 736v-85.333h-85.333v-42.667h85.333v-85.333h42.667v85.333h85.333v42.667h-85.333v85.333h-42.667zM469.333 181.333v-256h42.667v256h-42.667zM554.667 181.333v-256h42.667v256h-42.667zM640 181.333v-256h42.667v256h-42.667z" />
<glyph unicode="&#xe614;" glyph-name="air-heater-water_bg" data-tags="air-heater-water_bg" d="M128 821.333h768v-938.667h-768z" />
<glyph unicode="&#xe615;" glyph-name="air-heater-water_fg" data-tags="air-heater-water_fg" d="M85.333 864v-1024h853.333v1024h-818.667zM128 821.333h741.333l-741.333-906.667zM896 785.333v-902.667h-738.667zM469.333 736v-85.333h-85.333v-42.667h85.333v-85.333h42.667v85.333h85.333v42.667h-85.333v85.333z" />
<glyph unicode="&#xe616;" glyph-name="air-humidifier_bg" data-tags="air-humidifier_bg" d="M128 821.333h768v-938.667h-768z" />
<glyph unicode="&#xe617;" glyph-name="air-humidifier_fg" data-tags="air-humidifier_fg" d="M85.333 864v-1024h853.333v1024h-853.333zM128 821.333h768v-768h-768v768zM128 10.667h768v-128h-768v128z" />
<glyph unicode="&#xe618;" glyph-name="air-inlet_bg" data-tags="air-inlet_bg" d="M128 821.333v-640h768v640h-768zM358.667 138.667l153.333-213.333 153.333 213.333h-306.667z" />
<glyph unicode="&#xe619;" glyph-name="air-inlet_fg" data-tags="air-inlet_fg" d="M85.333 864v-725.333h213.333l213.333-298.667 213.333 298.667h213.333v725.333h-853.333zM128 821.333h768v-640h-768v640zM358.667 138.667h306.667l-153.333-213.333-153.333 213.333z" />
<glyph unicode="&#xe61a;" glyph-name="air-outlet_bg" data-tags="air-outlet_bg" d="M128 650.667h768v-640h-768z" />
<glyph unicode="&#xe61b;" glyph-name="air-outlet_fg" data-tags="air-outlet_fg" d="M85.333 693.333v-725.333h853.333v725.333h-853.333zM128 650.667h768v-640h-201.333l-182.667 256-182.667-256h-201.333v640zM512 181.333l122.667-170.667h-245.333l122.667 170.667z" />
<glyph unicode="&#xe61c;" glyph-name="blower-simple_fg" data-tags="blower-simple_fg" d="M386.667 778.667v-1.333h-10.667c-211.069-21.435-376-201.587-376-425.333s187.703-426.667 418.667-426.667c230.964 0 418.667 195.702 418.667 426.667h186.667v426.667h-636zM388 736h593.333v-341.333h-188l1.333-22.667v-9.333c0.081-3.227 0-7.416 0-10.667 0-207.906-168.095-384-376-384s-376 182.592-376 384c0 201.408 147.699 363.408 337.333 382.667z" />
<glyph unicode="&#xe61d;" glyph-name="blower_bg" data-tags="blower_bg" d="M388 736h593.333v-341.333h-188l1.333-22.667v-9.333c0.081-3.227 0-7.416 0-10.667 0-207.906-168.095-384-376-384s-376 182.592-376 384c0 201.408 147.699 363.408 337.333 382.667l8 1.333z" />
<glyph unicode="&#xe61e;" glyph-name="blower_fg" data-tags="blower_fg" d="M386.667 778.667v-1.333h-10.667c-211.069-21.435-376-201.587-376-425.333s187.703-426.667 418.667-426.667c230.964 0 418.667 195.702 418.667 426.667h186.667v426.667h-637.333zM388 736h593.333v-341.333h-188l1.333-22.667v-9.333c0.081-3.227 0-7.416 0-10.667 0-207.906-168.095-384-376-384s-376 182.592-376 384c0 201.408 147.699 363.408 337.333 382.667l8 1.333zM426.667 608c-141.385 0-256-114.615-256-256s114.615-256 256-256c141.385 0 256 114.615 256 256s-114.615 256-256 256zM426.667 565.333c117.821 0 213.333-95.513 213.333-213.333s-95.513-213.333-213.333-213.333c-117.821 0-213.333 95.513-213.333 213.333s95.513 213.333 213.333 213.333z" />
<glyph unicode="&#xe61f;" glyph-name="cap-valve_bg" data-tags="cap-valve_bg" d="M42.667 328v-421.333l404 209.333-404 212zM938.667 328l-405.333-212 405.333-210.667v422.667z" />
<glyph unicode="&#xe620;" glyph-name="cap-valve_fg" data-tags="cap-valve_fg" d="M128 864v-256h42.667v213.333h640v-213.333h42.667v256h-725.333zM256 736v-42.667h213.333v-544l-469.333 242.667v-552l490.667 253.333 490.667-253.333v554.667l-469.333-245.333v544h213.333v42.667h-469.333zM42.667 328l404-212-404-209.333v421.333zM938.667 328v-422.667l-405.333 210.667 405.333 212z" />
<glyph unicode="&#xe621;" glyph-name="compensator_bg" data-tags="compensator_bg" d="M113.333 778.667h797.333l-142.667-128 190.667-170.667-194.667-149.333 196-149.333-192-170.667 141.333-125.333h-794.667l141.333 125.333-192 170.667 196 149.333-194.667 149.333 190.667 170.667-142.667 128z" />
<glyph unicode="&#xe622;" glyph-name="compensator_fg" data-tags="compensator_fg" d="M0 824l192-173.333-192-170.667 196-149.333-196-149.333 190.667-170.667-190.667-170.667h1024l-190.667 170.667 190.667 170.667-196 149.333 196 149.333-192 170.667 192 173.333h-1024zM113.333 778.667h797.333l-142.667-128 190.667-170.667-194.667-149.333 196-149.333-192-170.667 141.333-125.333h-794.667l141.333 125.333-192 170.667 196 149.333-194.667 149.333 190.667 170.667-142.667 128zM341.333 565.333v-42.667h341.333v42.667h-341.333zM341.333 352v-42.667h341.333v42.667h-341.333zM341.333 138.667v-42.667h341.333v42.667h-341.333z" />
<glyph unicode="&#xe623;" glyph-name="cooling-tower_bg" data-tags="cooling-tower_bg" d="M330.667 821.333l-200-640h762.667l-200 640h-362.667zM128 138.667v-256h768v256h-768z" />
<glyph unicode="&#xe624;" glyph-name="cooling-tower_fg" data-tags="cooling-tower_fg" d="M298.667 864v-1.333l-213.333-681.333v-341.333h853.333v341.333l-213.333 681.333v1.333zM330.667 821.333h362.667l200-640h-762.667zM128 138.667h768v-256h-768z" />
<glyph unicode="&#xe625;" glyph-name="dirt-trap_bg" data-tags="dirt-trap_bg" d="M136 728l-97.333-97.333 473.333-234.667 144 72-520 260zM42.667 585.333v-424l424 212-424 212zM981.333 585.333l-424-212 424-212v424zM426.667 77.333l-129.333-46.667 129.333-45.333v92z" />
<glyph unicode="&#xe626;" glyph-name="dirt-trap_fg" data-tags="dirt-trap_fg" d="M128 778.667l-128-128v-554.667l29.333 14.667 482.667 240 512-254.667v554.667l-29.333-14.667-292-145.333-561.333 281.333zM136 728l520-260-144-72-473.333 234.667zM42.667 585.333l424-212-424-212zM981.333 585.333v-424l-424 212zM469.333 138.667l-28-10.667-213.333-77.333-57.333-20 270.667-94.667 28-10.667v85.333h384v42.667h-384v54.667zM426.667 77.333v-92l-129.333 45.333z" />
<glyph unicode="&#xe627;" glyph-name="distribution-chamber_bg" data-tags="distribution-chamber_bg" d="M298.667 394.667h384v-512h-384z" />
<glyph unicode="&#xe628;" glyph-name="distribution-chamber_fg" data-tags="distribution-chamber_fg" d="M490.667 864l-106.667-213.333h85.333v-213.333h-213.333v-254.667l-170.667 84v-85.333h-85.333v-42.667h85.333v-85.333l168 85.333h2.667v-298.667h469.333v298.667h86.667v-88l212 108-212 108v-85.333h-86.667v256h-213.333v213.333h85.333l-106.667 213.333zM298.667 394.667h384v-512h-384v256h128v42.667h-128v213.333z" />
<glyph unicode="&#xe629;" glyph-name="droplet-separator_bg" data-tags="droplet-separator_bg" d="M85.333 821.333h810.667v-938.667h-810.667z" />
<glyph unicode="&#xe62a;" glyph-name="droplet-separator_fg" data-tags="droplet-separator_fg" d="M42.667 864v-1024h896v1024h-896zM85.333 821.333h384v-128h42.667v128h384v-608l-404-330.667h-2.667l-404 329.333v609.333zM469.333 608v-128h42.667v128h-42.667zM469.333 394.667v-128h42.667v128h-42.667zM469.333 181.333v-128h42.667v128h-42.667zM896 160v-277.333h-338.667l338.667 277.333zM85.333 158.667l337.333-276h-337.333v276z" />
<glyph unicode="&#xe62b;" glyph-name="expansion-tank_bg" data-tags="expansion-tank_bg" d="M256 821.333c-70.912 0-128-57.088-128-128v-682.667c0-70.912 57.088-128 128-128h256c70.912 0 128 57.088 128 128v682.667c0 70.912-57.088 128-128 128h-256z" />
<glyph unicode="&#xe62c;" glyph-name="expansion-tank_fg" data-tags="expansion-tank_fg" d="M256 864c-94.549 0-170.667-76.117-170.667-170.667v-682.667c0-94.549 76.117-170.667 170.667-170.667h256c94.549 0 170.667 76.117 170.667 170.667v597.333h128v-85.333h42.667v85.333h85.333v42.667h-85.333v85.333h-42.667v-85.333h-128v42.667c0 94.549-76.117 170.667-170.667 170.667h-256zM256 821.333h256c70.912 0 128-57.088 128-128v-42.667h-85.333v-42.667h85.333v-256h-108c-10.244 72.491-72.682 128-148 128s-137.756-55.509-148-128h-108v341.333c0 70.912 57.088 128 128 128zM384 437.333c58.91 0 106.667-47.756 106.667-106.667 0-7.364-1.246-14.39-2.667-21.333h152v-298.667c0-70.912-57.088-128-128-128h-256c-70.912 0-128 57.088-128 128v298.667h152c-1.421 6.944-2.667 13.97-2.667 21.333 0 58.91 47.756 106.667 106.667 106.667z" />
<glyph unicode="&#xe62d;" glyph-name="fan-axial_bg" data-tags="fan-axial_bg" d="M938.667 333.955c0-249.24-200.576-451.288-448-451.288s-448 202.049-448 451.288c0 249.24 200.576 451.288 448 451.288s448-202.049 448-451.288z" />
<glyph unicode="&#xe62e;" glyph-name="fan-axial_fg" data-tags="fan-axial_fg" d="M490.667 821.333c-270.988 0-490.667-219.679-490.667-490.667s219.679-490.667 490.667-490.667c270.988 0 490.667 219.679 490.667 490.667s-219.679 490.667-490.667 490.667zM490.667 778.667c19.091 0 37.537-1.682 56-4l290.667-726.667c-82.147-100.846-206.456-165.333-346.667-165.333s-264.519 64.487-346.667 165.333l290.667 726.667c18.463 2.318 36.909 4 56 4zM385.333 765.333l-272-676c-44.674 69.682-70.667 152.415-70.667 241.333 0 211.151 146.057 387.299 342.667 434.667zM596 765.333c196.61-47.368 342.667-223.515 342.667-434.667 0-88.918-25.993-171.651-70.667-241.333l-272 676zM469.333 352v-384h42.667v384h-42.667z" />
<glyph unicode="&#xe62f;" glyph-name="fan-coil-unit_bg" data-tags="fan-coil-unit_bg" d="M128 821.333h768v-938.667h-768z" />
<glyph unicode="&#xe630;" glyph-name="fan-coil-unit_fg" data-tags="fan-coil-unit_fg" d="M85.333 864v-1024h853.333v1024h-853.333zM128 821.333h768v-938.667h-768v938.667zM213.333 736v-42.667h597.333v42.667h-597.333zM512 565.333c-164.949 0-298.667-133.718-298.667-298.667s133.718-298.667 298.667-298.667c164.949 0 298.667 133.718 298.667 298.667s-133.718 298.667-298.667 298.667zM512 522.667c9.915 0 19.653-0.137 29.333-1.333l160-424c-47.467-52.777-115.652-86.667-189.333-86.667s-141.866 33.89-189.333 86.667l160 424c9.68 1.196 19.419 1.333 29.333 1.333zM432 508l-140-368c-22.463 37.805-36 81.057-36 126.667 0 109.6 75.776 206.285 176 241.333zM592 508c100.224-35.048 176-131.733 176-241.333 0-45.61-13.537-88.861-36-126.667l-140 368z" />
<glyph unicode="&#xe631;" glyph-name="fan-radial_bg" data-tags="fan-radial_bg" d="M938.667 330.667c0-0.015 0-0.032 0-0.049 0-247.424-200.576-448-448-448s-448 200.576-448 448c0 0.017 0 0.035 0 0.052 0 0.012 0 0.029 0 0.047 0 247.424 200.576 448 448 448s448-200.576 448-448c0-0.017 0-0.035 0-0.052z" />
<glyph unicode="&#xe632;" glyph-name="fan-radial_fg" data-tags="fan-radial_fg" d="M490.667 821.333c-270.988 0-490.667-219.679-490.667-490.667s219.679-490.667 490.667-490.667c270.988 0 490.667 219.679 490.667 490.667s-219.679 490.667-490.667 490.667zM490.667 778.667c19.091 0 37.537-1.682 56-4l290.667-726.667c-82.147-100.846-206.456-165.333-346.667-165.333s-264.519 64.487-346.667 165.333l290.667 726.667c18.463 2.318 36.909 4 56 4zM385.333 765.333l-272-676c-44.674 69.682-70.667 152.415-70.667 241.333 0 211.151 146.057 387.299 342.667 434.667zM596 765.333c196.61-47.368 342.667-223.515 342.667-434.667 0-88.918-25.993-171.651-70.667-241.333l-272 676zM341.333 96v-42.667h341.333v42.667h-341.333z" />
<glyph unicode="&#xe633;" glyph-name="fan_bg" data-tags="fan_bg" d="M938.667 330.667c0-247.424-200.576-448-448-448s-448 200.576-448 448c0 247.424 200.576 448 448 448s448-200.576 448-448z" />
<glyph unicode="&#xe634;" glyph-name="fan_fg" data-tags="fan_fg" d="M490.667 821.333c-270.988 0-490.667-219.679-490.667-490.667s219.679-490.667 490.667-490.667c270.988 0 490.667 219.679 490.667 490.667s-219.679 490.667-490.667 490.667zM490.667 778.667c19.091 0 37.537-1.682 56-4l290.667-726.667c-82.147-100.846-206.456-165.333-346.667-165.333s-264.519 64.487-346.667 165.333l290.667 726.667c18.463 2.318 36.909 4 56 4zM385.333 765.333l-272-676c-44.674 69.682-70.667 152.415-70.667 241.333 0 211.151 146.057 387.299 342.667 434.667zM596 765.333c196.61-47.368 342.667-223.515 342.667-434.667 0-88.918-25.993-171.651-70.667-241.333z" />
<glyph unicode="&#xe635;" glyph-name="filter_bg" data-tags="filter_bg" d="M42.667 736h938.667v-810.667h-938.667z" />
<glyph unicode="&#xe636;" glyph-name="filter_fg" data-tags="filter_fg" d="M0 778.667h1024v-896h-1024zM42.667 736v-810.667h608l330.667 404v2.667l-329.333 404zM704-74.667h277.333v338.667zM705.333 736l276-337.333v337.333z" />
<glyph unicode="&#xe637;" glyph-name="fire-damper_bg" data-tags="fire-damper_bg" d="M128 821.333h768v-938.667h-768z" />
<glyph unicode="&#xe638;" glyph-name="fire-damper_fg" data-tags="fire-damper_fg" d="M85.333 864v-1024h853.333v1024h-853.333zM128 821.333h621.333l-621.333-768v768zM802.667 821.333h93.333v-105.333l-298.667-369.333c0.11 1.774 0 3.531 0 5.333 0 47.128-38.205 85.333-85.333 85.333-7.806 0-15.484-0.704-22.667-2.667l313.333 386.667zM896 650.667v-769.333l-621.333 1.333 621.333 768zM426.667 357.333c-0.11-1.774 0-3.531 0-5.333 0-47.128 38.205-85.333 85.333-85.333 7.806 0 15.484 0.704 22.667 2.667l-313.333-386.667h-93.333v105.333l298.667 369.333z" />
<glyph unicode="&#xe639;" glyph-name="flow-conditioner_bg" data-tags="flow-conditioner_bg" d="M213.333 778.667h597.333v-896h-597.333z" />
<glyph unicode="&#xe63a;" glyph-name="flow-conditioner_fg" data-tags="flow-conditioner_fg" d="M170.667 821.333v-469.333h-170.667v-42.667h170.667v-469.333h682.667v469.333h170.667v42.667h-170.667v469.333h-682.667zM213.333 778.667h597.333v-213.333h-597.333v213.333zM213.333 522.667h597.333v-170.667h-597.333v170.667zM213.333 309.333h597.333v-170.667h-597.333v170.667zM213.333 96h597.333v-213.333h-597.333v213.333z" />
<glyph unicode="&#xe63b;" glyph-name="globe-control-motor-part_bg" data-tags="globe-control-motor-part_bg" d="M490.667 821.333c129.603 0 234.667-105.064 234.667-234.667s-105.064-234.667-234.667-234.667c-129.603 0-234.667 105.064-234.667 234.667s105.064 234.667 234.667 234.667z" />
<glyph unicode="&#xe63c;" glyph-name="globe-control-motor-part_fg" data-tags="globe-control-motor-part_fg" d="M490.667 864c-153.167 0-277.333-124.166-277.333-277.333 0-145.868 112.97-264.936 256-276v-161.333h42.667v161.333c143.030 11.064 256 130.132 256 276 0 153.167-124.166 277.333-277.333 277.333zM490.667 821.333c129.603 0 234.667-105.064 234.667-234.667s-105.064-234.667-234.667-234.667c-129.603 0-234.667 105.064-234.667 234.667s105.064 234.667 234.667 234.667zM384 693.333v-256h42.667v170.667l64-50.667 64 50.667v-170.667h42.667v256l-106.667-85.333z" />
<glyph unicode="&#xe63d;" glyph-name="globe-control-valve-part_bg" data-tags="globe-control-valve-part_bg" d="M42.667 328v-421.333l404 209.333-404 212zM938.667 328l-405.333-212 405.333-210.667v422.667z" />
<glyph unicode="&#xe63e;" glyph-name="globe-control-valve-part_fg" data-tags="globe-control-valve-part_fg" d="M469.333 149.333l-469.333 242.667v-552l490.667 253.333 490.667-253.333v554.667l-469.333-245.333zM42.667 328l404-212-404-209.333zM938.667 328v-422.667l-405.333 210.667z" />
<glyph unicode="&#xe63f;" glyph-name="globe-control-valve_bg" data-tags="globe-control-valve_bg" d="M490.667 821.333c-129.603 0-234.667-105.064-234.667-234.667s105.064-234.667 234.667-234.667c129.603 0 234.667 105.064 234.667 234.667s-105.064 234.667-234.667 234.667zM42.667 328v-421.333l404 209.333-404 212zM938.667 328l-405.333-212 405.333-210.667v422.667z" />
<glyph unicode="&#xe640;" glyph-name="globe-control-valve_fg" data-tags="globe-control-valve_fg" d="M490.667 864c-153.167 0-277.333-124.166-277.333-277.333 0-145.868 112.97-264.936 256-276v-161.333l-469.333 242.667v-552l490.667 253.333 490.667-253.333v554.667l-469.333-245.333v161.333c143.030 11.064 256 130.132 256 276 0 153.167-124.166 277.333-277.333 277.333zM490.667 821.333c129.603 0 234.667-105.064 234.667-234.667s-105.064-234.667-234.667-234.667c-129.603 0-234.667 105.064-234.667 234.667s105.064 234.667 234.667 234.667zM384 693.333v-256h42.667v170.667l64-50.667 64 50.667v-170.667h42.667v256l-106.667-85.333-106.667 85.333zM42.667 328l404-212-404-209.333v421.333zM938.667 328v-422.667l-405.333 210.667 405.333 212z" />
<glyph unicode="&#xe641;" glyph-name="heat-exchanger_bg" data-tags="heat-exchanger_bg" d="M213.333 821.333h768v-938.667h-768z" />
<glyph unicode="&#xe642;" glyph-name="heat-exchanger_fg" data-tags="heat-exchanger_fg" d="M170.667 864v-213.333h-170.667v-42.667h170.667v-512h-170.667v-42.667h170.667v-213.333h853.333v1024h-853.333zM213.333 821.333h768v-938.667h-768v170.667h512l-282.667 298.667 282.667 298.667h-512v170.667zM213.333 608h412l-241.333-256 241.333-256h-412v512z" />
<glyph unicode="&#xe643;" glyph-name="mixing-chamber_bg" data-tags="mixing-chamber_bg" d="M298.667 394.667h384v-512h-384z" />
<glyph unicode="&#xe644;" glyph-name="mixing-chamber_fg" data-tags="mixing-chamber_fg" d="M469.333 864v-256h-85.333l85.333-170.667h-213.333v-254.667l-170.667 84v-85.333h-85.333v-42.667h85.333v-85.333l168 85.333h2.667v-298.667h469.333v298.667h86.667v-88l212 108-212 108v-85.333h-86.667v256h-213.333l85.333 170.667h-85.333v256h-42.667zM298.667 394.667h170.667v-128h42.667v128h170.667v-512h-384v256h128v42.667h-128v213.333z" />
<glyph unicode="&#xe645;" glyph-name="protective-grating_bg" data-tags="protective-grating_bg" d="M128 821.333h768v-938.667h-768z" />
<glyph unicode="&#xe646;" glyph-name="protective-grating_fg" data-tags="protective-grating_fg" d="M85.333 864v-1024h853.333v1024h-853.333zM128 821.333h768v-938.667h-768v938.667zM801.333 754.667l-597.333-298.667 18.667-37.333 597.333 298.667-18.667 37.333zM801.333 520l-597.333-298.667 18.667-37.333 597.333 298.667-18.667 37.333zM801.333 285.333l-597.333-298.667 18.667-37.333 597.333 298.667-18.667 37.333z" />
<glyph unicode="&#xe647;" glyph-name="regulator-block-valve_bg" data-tags="regulator-block-valve_bg" d="M512 590.667l-209.333-206.667 101.333-46.667c22.868 34.863 63.191 57.333 108 57.333s85.132-22.47 108-57.333l101.333 46.667-209.333 206.667zM42.667 460v-386.667l346.667 158.667c-3.2 11.196-5.333 22.443-5.333 34.667s2.133 23.47 5.333 34.667l-346.667 158.667zM981.333 460l-346.667-158.667c3.2-11.196 5.333-22.443 5.333-34.667s-2.133-23.47-5.333-34.667l346.667-158.667v386.667z" />
<glyph unicode="&#xe648;" glyph-name="regulator-block-valve_fg" data-tags="regulator-block-valve_fg" d="M512 650.667l-30.667-29.333-220-218.667-232 105.333-29.333 14.667v-512l29.333 14.667 374.667 170.667c22.868-34.863 63.191-57.333 108-57.333s85.132 22.47 108 57.333l374.667-170.667 29.333-14.667v512l-29.333-14.667-232-105.333-220 218.667zM512 590.667l209.333-206.667-101.333-46.667c-22.868 34.863-63.191 57.333-108 57.333s-85.132-22.47-108-57.333l-101.333 46.667zM42.667 460l346.667-158.667c-3.2-11.196-5.333-22.443-5.333-34.667s2.133-23.47 5.333-34.667l-346.667-158.667zM981.333 460v-386.667l-346.667 158.667c3.2 11.196 5.333 22.443 5.333 34.667s-2.133 23.47-5.333 34.667z" />
<glyph unicode="&#xe649;" glyph-name="separator_bg" data-tags="separator_bg" d="M85.333 821.333h810.667v-938.667h-810.667z" />
<glyph unicode="&#xe64a;" glyph-name="separator_fg" data-tags="separator_fg" d="M42.667 864v-1024h896v1024zM85.333 821.333h810.667v-608l-404-330.667h-2.667l-404 329.333zM469.333 693.333v-597.333h42.667v597.333zM896 160v-277.333h-338.667zM85.333 158.667l337.333-276h-337.333z" />
<glyph unicode="&#xe64b;" glyph-name="smoke-damper_bg" data-tags="smoke-damper_bg" d="M128 821.333h768v-938.667h-768z" />
<glyph unicode="&#xe64c;" glyph-name="smoke-damper_fg" data-tags="smoke-damper_fg" d="M85.333 864v-1024h853.333v1024h-853.333zM128 821.333h741.333l-321.333-392c-10.918 5.074-23.167 8-36 8-47.128 0-85.333-38.205-85.333-85.333 0-19.054 6.778-36.465 17.333-50.667l-316-385.333v905.333zM896 788v-905.333h-741.333l321.333 392c10.918-5.074 23.167-8 36-8 47.128 0 85.333 38.205 85.333 85.333 0 19.054-6.778 36.465-17.333 50.667l316 385.333z" />
<glyph unicode="&#xe64d;" glyph-name="volume-flow-controller_bg" data-tags="volume-flow-controller_bg" d="M42.667 736h938.667v-768h-938.667z" />
<glyph unicode="&#xe64e;" glyph-name="volume-flow-controller_fg" data-tags="volume-flow-controller_fg" d="M0 778.667v-853.333h1024v853.333h-1024zM42.667 736h938.667v-88l-938.667-122.667v210.667zM981.333 606.667v-508l-938.667 122.667v262.667l938.667 122.667zM42.667 180l938.667-122.667v-89.333h-938.667v212z" />
<glyph unicode="&#xe64f;" glyph-name="water-meter_bg" data-tags="water-meter_bg" d="M42.667 821.333h938.667v-938.667h-938.667z" />
<glyph unicode="&#xe650;" glyph-name="water-meter_fg" data-tags="water-meter_fg" d="M0 864v-1024h1024v1024h-1024zM42.667 821.333h938.667v-938.667h-938.667v938.667zM320 778.667c-59.002 0-106.667-66.078-106.667-148 0-42.597 12.666-81.033 33.333-108h-76v170.667h-42.667v-213.333h768v213.333h-42.667v-170.667h-118.667c20.667 26.967 33.333 65.403 33.333 108 0 81.922-47.664 148-106.667 148-35.162 0-65.913-23.697-85.333-60-19.415 36.384-51.459 60-86.667 60-35.018 0-64.564-23.95-84-60-19.42 36.303-50.171 60-85.333 60zM320 736c39.741 0 61.742-42.093 64-96-0.15-3.22-1.333-6.060-1.333-9.333s1.183-6.114 1.333-9.333c-2.258-54.036-24.259-97.333-64-97.333-42.031 0-64 48.309-64 106.667s21.969 105.333 64 105.333zM489.333 736c42.031 0 65.333-46.975 65.333-105.333s-23.302-106.667-65.333-106.667c-42.031 0-62.667 48.309-62.667 106.667s20.636 105.333 62.667 105.333zM661.333 736c42.031 0 64-46.975 64-105.333s-21.969-106.667-64-106.667c-42.031 0-64 48.309-64 106.667s21.969 105.333 64 105.333zM405.333 542.667c3.716-6.893 7.49-14.115 12-20h-24c4.607 6.012 8.223 12.939 12 20zM576 542.667c3.777-7.061 7.393-13.988 12-20h-25.333c4.638 6.052 9.537 12.885 13.333 20zM85.333 352l160-213.333-160-213.333h298.667v42.667h-210.667l125.333 170.667-125.333 170.667h210.667v42.667h-298.667zM734.667 310.667l-74.667-305.333h25.333l74.667 305.333h-25.333zM854.667 308c-20.232 0-37.063-7.963-50.667-21.333s-22.83-31.677-26.667-56l32-6.667c2.325 17.738 7.861 31.131 16 40s18.458 13.333 30.667 13.333c12.325 0 21.543-4.599 29.333-13.333s12-18.697 12-32c0-16.798-5.303-29.271-16-37.333s-22.629-12-36-12c-1.279 0-3.24-0.269-5.333 0l-4-32c8.837 2.687 16.737 4 22.667 4 14.534 0 26.582-5.183 36-16s14.667-24.67 14.667-41.333c0-17.47-5.826-32.175-16-44s-22.567-17.333-37.333-17.333c-12.441 0-23.338 4.263-32 13.333s-13.729 23.44-17.333 44l-32-4c2.093-24.592 10.508-45.88 25.333-61.333s33.559-22.667 56-22.667c24.883 0 45.055 8.727 61.333 26.667s25.333 39.532 25.333 65.333c0 19.082-4.962 35.301-13.333 48s-19.551 21.302-34.667 25.333c11.627 6.181 19.403 14.851 25.333 25.333s9.333 21.9 9.333 34.667c0 13.438-3.113 26.707-9.333 38.667s-14.923 21.079-26.667 28c-11.744 6.92-24.714 10.666-38.667 10.667zM470.667 229.333c-12.325 0-23.683-2.95-33.333-9.333s-16.853-14.852-22.667-25.333v30.667h-28v-214.667h30.667v110.667c0 19.485 1.961 34.986 5.333 45.333s8.5 18.625 16 24c7.5 5.375 16.496 8 25.333 8 11.627 0 18.884-3.937 24-12s8-21.208 8-37.333v-138.667h32v124c0 22.038 3.395 37.989 12 48s20.31 16 33.333 16c7.209 0 13.318-2.77 18.667-6.667s8.632-8.284 10.667-14.667c2.035-6.383 2.666-17.487 2.667-32v-134.667h32v146.667c0 24.457-4.784 42.908-14.667 54.667s-24.296 17.333-42.667 17.333c-23.488 0-42.683-12.339-57.333-37.333-3.605 11.825-9.888 21.415-18.667 28s-19.613 9.333-33.333 9.333z" />
<glyph unicode="&#xe651;" glyph-name="blower-simple_bg" data-tags="blower-simple_bg" d="M388 736h593.333v-341.333h-188l1.333-22.667v-9.333c0.081-3.227 0-7.416 0-10.667 0-207.906-168.095-384-376-384s-376 182.592-376 384c0 201.408 147.699 363.408 337.333 382.667l8 1.333z" />
<glyph unicode="&#xe652;" glyph-name="filter-roller_bg" data-tags="filter-roller_bg" d="M42.667 821.333h938.667v-938.667h-938.667z" />
<glyph unicode="&#xe653;" glyph-name="filter-roller_fg" data-tags="filter-roller_fg" d="M0 864v-1024h1024v1024h-1024zM42.667 821.333h609.333l329.333-469.333v-2.667l-330.667-466.667h-608v938.667zM298.667-117.333c70.912 0 128 57.088 128 128v682.667c0 70.912-57.088 128-128 128s-128-57.088-128-128v-682.667c0-70.912 57.088-128 128-128zM705.333 821.333h276v-402.667l-276 402.667zM298.667 778.667c47.275 0 85.333-38.059 85.333-85.333v-682.667c0-47.275-38.059-85.333-85.333-85.333s-85.333 38.059-85.333 85.333v682.667c0 47.275 38.059 85.333 85.333 85.333zM981.333 284v-401.333h-277.333l277.333 401.333z" />
<glyph unicode="&#xe654;" glyph-name="heat-exchanger-1_bg" data-tags="heat-exchanger-1_bg" d="M42.667 821.333h938.667v-938.667h-938.667z" />
<glyph unicode="&#xe655;" glyph-name="heat-exchanger-1_fg" data-tags="heat-exchanger-1_fg" d="M0 864v-1024h1024v1024h-1024zM73 821.333h792.833l-393.833-393.833-399 393.833zM926.167 821.333h55.167v-55.167l-423.417-423.417-55.5 54.833 423.75 423.75zM42.667 791.333l399.167-394-399.167-399.167v793.167zM981.333 705.833v-780.833l-393 387.833 393 393zM472.25 367.417l55.5-54.833-429.917-429.917h-55.167v55.167l429.583 429.583zM558.167 282.667l405.333-400h-805.333l400 400z" />
<glyph unicode="&#xe656;" glyph-name="plate-cross-flow-heat-exchanger_bg" data-tags="plate-cross-flow-heat-exchanger_bg" d="M42.667 821.333h938.667v-938.667h-938.667z" />
<glyph unicode="&#xe657;" glyph-name="plate-cross-flow-heat-exchanger_fg" data-tags="plate-cross-flow-heat-exchanger_fg" d="M0 864v-1024h1024v1024h-1024zM73 821.333h792.833l-230.583-230.583-123.25 123.25-164.083-164.083-274.917 271.417zM926.167 821.333h55.167v-55.167l-260.75-260.75-55.167 55.167 260.75 260.75zM42.667 791.333l275.083-271.583-167.75-167.75 123.25-123.25-230.583-230.583v793.167zM981.333 705.833v-780.833l-268.917 265.417 161.583 161.583-123.25 123.25 230.583 230.583zM512 653.667l93.083-93.083-133.083-133.083-93.667 92.5 133.667 133.667zM635.25 530.417l55.167-55.167-132.5-132.5-55.5 54.833 132.833 132.833zM348.167 489.833l93.667-92.5-138.417-138.417-93.083 93.083 137.833 137.833zM720.583 445.083l93.083-93.083-131.667-131.667-93.667 92.5 132.25 132.25zM472.25 367.417l55.5-54.833-139-139-55.167 55.167 138.667 138.667zM558.167 282.667l93.667-92.5-139.833-139.833-93.083 93.083 139.25 139.25zM303.417 198.583l55.167-55.167-260.75-260.75h-55.167v55.167l260.75 260.75zM682.25 160.25l281.25-277.583h-805.333l230.583 230.583 123.25-123.25 170.25 170.25z" />
<glyph unicode="&#xe658;" glyph-name="circulating-heat-exchanger_bg" data-tags="circulating-heat-exchanger_bg" d="M42.667 821.333h938.667v-938.667h-938.667z" />
<glyph unicode="&#xe659;" glyph-name="circulating-heat-exchanger_fg" data-tags="circulating-heat-exchanger_fg" d="M0 864v-1024h1024v1024h-1024zM73 821.333h792.833l-240.083-240.083c-34.262 16.961-72.792 26.75-113.75 26.75-62.24 0-119.14-22.001-163.417-58.667l-275.583 272zM926.167 821.333h55.167v-55.167l-262.917-262.917c-15.468 21.112-34.055 39.699-55.167 55.167l262.917 262.917zM42.667 791.333l275.583-272c-38.72-44.831-62.25-103.176-62.25-167.333 0-40.958 9.789-79.488 26.75-113.75l-240.083-240.083v793.167zM981.333 705.833v-780.833l-269.917 266.333c35.355 43.884 56.583 99.67 56.583 160.667 0 40.958-9.789 79.488-26.75 113.75l240.083 240.083zM512 565.333c28.962 0 56.449-5.884 81.583-16.25l-121.583-121.583-92.167 91c36.39 28.894 81.882 46.833 132.167 46.833zM632.75 527.917c21.612-14.833 40.334-33.554 55.167-55.167l-130-130-55.5 54.833 130.333 130.333zM349.25 488.75l92.583-91.417-126.917-126.917c-10.366 25.134-16.25 52.621-16.25 81.583 0 52.423 19.436 99.686 50.583 136.75zM709.083 433.583c10.366-25.134 16.25-52.621 16.25-81.583 0-49.237-17.187-93.891-45-129.917l-92 90.75 120.75 120.75zM472.25 367.417l55.5-54.833-136.5-136.5c-21.612 14.833-40.334 33.554-55.167 55.167l136.167 136.167zM558.167 282.667l92.833-91.583c-37.361-32.274-85.528-52.417-139-52.417-28.962 0-56.449 5.884-81.583 16.25l127.75 127.75zM305.583 200.75c15.468-21.112 34.055-39.699 55.167-55.167l-262.917-262.917h-55.167v55.167l262.917 262.917zM681.917 160.583l281.583-277.917h-805.333l240.083 240.083c34.262-16.961 72.792-26.75 113.75-26.75 65.415 0 124.756 24.494 169.917 64.583z" />
<glyph unicode="&#xe65a;" glyph-name="air-humidifier-spray_bg" data-tags="air-humidifier-spray_bg" d="M42.667 821.333h938.667v-938.667h-938.667z" />
<glyph unicode="&#xe65b;" glyph-name="air-humidifier-spray_fg" data-tags="air-humidifier-spray_fg" d="M0 864v-1024h1024v1024h-989.333zM42.667 821.333h938.667v-725.333h-768v311.167l240.917-240.917 30.167 30.167-240.917 240.917h268.5v42.667h-268.5l240.917 240.917-30.167 30.167-240.917-240.917v225.833h-42.667v-640h-128zM42.667 53.333h128v-170.667h-128zM213.333 53.333h768v-170.667h-768z" />
<glyph unicode="&#xe65c;" glyph-name="air-humidifier-rotary_bg" data-tags="air-humidifier-rotary_bg" horiz-adv-x="512" d="M21.417 842.667l-0.083-469.333h469.333c0.032-0.009 0.052 0.009 0.083 0v85.333h-0.083l0.083 384h-469.333zM372.083 202.833c-0.010 0-0.022 0-0.035 0-64.849 0-117.42-52.568-117.424-117.416 0.004-64.849 52.575-117.417 117.424-117.417 0.012 0 0.024 0 0.037 0 48.369 0.019 89.901 29.283 107.873 71.070 6.277 14.323 9.771 30.132 9.792 46.755-0.021 11.749-1.77 23.074-5.007 33.752l-0.034-1.244c-2.807 9.394-6.349 17.542-10.719 25.155l0.511-0.197c-14.826 25.881-38.555 45.236-66.922 54.070-11.194 3.547-23.119 5.466-35.491 5.472zM42.583 202.792l64.083-85.458h21.333l65.583 85.458h-65.5v-0.083l-85.5 0.083zM106.667 53.333l-64.083-85.458h151l-65.583 85.458h-21.333z" />
<glyph unicode="&#xe65d;" glyph-name="air-humidifier-rotary_fg" data-tags="air-humidifier-rotary_fg" horiz-adv-x="512" d="M0.083 864v-512h106.667v-128h-106.833l12.875-17 92-121.667-104.875-138.667h106.833v-106.667h277.333v107.25c71.854 5.962 127.923 65.713 128 138.576-0.033 72.914-56.117 132.71-127.496 138.641l-0.504 127.534h128v512h-512zM21.417 842.667h469.333v-362.667h-362.667v155.583l120.458-120.458 15.083 15.083-120.458 120.458h134.25v21.333h-134.25l120.458 120.458-15.083 15.083-120.458-120.458v112.917h-21.333v-320h-85.333v362.667zM21.417 458.667h85.333v-85.333h-85.333v85.333zM128.083 458.667h362.667v-85.333h-106.667v42.667h-21.333v-42.667h-234.667v85.333zM128.083 352h234.667v-127.5c-72.312-5.462-128.926-65.441-129-138.659 0.007-73.286 56.645-133.334 128.533-138.771l0.467-85.737h-234.667v85.333h108.167l-104.875 138.667 104.875 138.667h-108.167v128zM42.583 202.792h64.167v-84.875l-64.167 84.875zM128.083 202.792h65.5l-65.5-86.667v86.667zM362.75 202.125v-215.458l-90.958 157.5c18.881 32.27 51.997 54.441 90.506 57.925zM384.083 202.125c38.898-3.892 71.822-26.348 90.115-58.263l-90.115-157.154v215.417zM261.167 119.917l85.333-147.75c-52.152 12.408-90.352 58.567-90.417 113.659 0 12.168 1.859 23.894 5.306 34.918zM484.958 118.75c3.022-9.851 4.771-21.175 4.792-32.906-0.056-54.711-37.698-100.604-88.487-113.258l83.696 146.164zM128.083 54.542l65.5-86.667h-65.5v86.667zM106.75 52.75v-84.875h-64.167l64.167 84.875z" />
<glyph unicode="&#xe65e;" glyph-name="air-humidifier-oscilating_bg" data-tags="air-humidifier-oscilating_bg" d="M42.667 821.333h938.667v-938.667h-938.667z" />
<glyph unicode="&#xe65f;" glyph-name="air-humidifier-oscilating_fg" data-tags="air-humidifier-oscilating_fg" d="M0 864v-1024h1024v1024h-1024zM42.667 821.333h938.667v-725.333h-810.667v311.167l240.917-240.917 30.167 30.167-240.917 240.917h268.5v42.667h-268.5l240.917 240.917-30.167 30.167-240.917-240.917v225.833h-42.667v-640h-85.333v725.333zM596.083 395.417c-31.366 0-62.984-10.423-87.167-32.25s-39.894-55.355-39.583-96.333l42.667 0.333c-0.23 30.412 10.136 50.465 25.5 64.333s36.762 21.25 58.583 21.25c21.821 0 43.492-7.413 59.333-21.417s26.771-34.253 27.25-64.667h0.083c-0.175-40.738 15.421-74.1 39.5-95.833 24.183-21.827 55.801-32.25 87.167-32.25s63.045 10.392 87.583 32.083c24.536 21.692 41.021 55.023 41.667 96l-42.667 0.667c-0.479-30.414-11.408-50.663-27.25-64.667s-37.512-21.417-59.333-21.417c-21.821 0-43.219 7.382-58.583 21.25s-25.73 33.921-25.5 64.333v0.5c-0.646 40.977-17.129 74.309-41.667 96s-56.217 32.083-87.583 32.083zM42.667 53.333h85.333v-170.667h-85.333v170.667zM170.667 53.333h810.667v-170.667h-810.667v170.667z" />
<glyph unicode="&#xe660;" glyph-name="air-humidifier-centrifugal_bg" data-tags="air-humidifier-centrifugal_bg" d="M42.667 821.333h938.667v-938.667h-938.667z" />
<glyph unicode="&#xe661;" glyph-name="air-humidifier-centrifugal_fg" data-tags="air-humidifier-centrifugal_fg" d="M0 864v-1024h1024v1024h-1024zM42.667 821.333h938.667v-725.333h-682.667v69c37.195-16.527 80.576-26.205 126.203-26.333 176.778 0 320.047 143.269 320.047 320s-143.269 320-320 320c-176.731 0-320-143.269-320-320 0.074-114.088 59.842-214.201 149.757-270.804l1.327-91.863h-213.333v725.333zM424.917 736c30.686-0.085 60.162-5.141 87.706-14.404l-213.956-211.429v195.417c36.703 19.166 80.163 30.412 126.249 30.417zM553.167 704.333c82.99-43.977 140.341-126.671 148.104-223.356l-372.437-0.978 224.333 224.333zM256 678.417v-439.25c-66.084 51.107-108.265 130.362-108.417 219.475 0.069 89.256 42.268 168.618 107.778 219.3zM328.833 437.333h372.333c-7.743-97.65-65.006-180.367-146.419-223.689l-225.914 223.689zM298.667 407.167l211.917-211.917c-25.555-8.709-54.996-13.792-85.608-13.916-46.175 0.088-89.624 11.419-127.839 31.394l1.529 194.439zM42.667 53.333h213.333v-170.667h-213.333v170.667zM298.667 53.333h682.667v-170.667h-682.667v170.667z" />
<glyph unicode="&#xe662;" glyph-name="air-humidifier-with-electric-steam-generator_bg" data-tags="air-humidifier-with-electric-steam-generator_bg" horiz-adv-x="512" d="M21.333 842.667v-554.667h469.333v554.667h-469.333zM21.333 266.667v-298.667h320v298.667h-320z" />
<glyph unicode="&#xe663;" glyph-name="air-humidifier-with-electric-steam-generator_fg" data-tags="air-humidifier-with-electric-steam-generator_fg" horiz-adv-x="512" d="M0.083 864v-576h-0.083v-341.333h170.667v-106.667h21.333v106.667h170.667v320h149.417v597.333h-512zM21.417 842.667h469.333v-362.667h-298.75v298.667h-21.333v-298.667h-149.25v362.667zM234.667 778.667v-21.333h213.333v21.333h-213.333zM234.667 672v-21.333h213.333v21.333h-213.333zM234.667 565.333v-21.333h213.333v21.333h-213.333zM21.333 458.667h149.333v-43.208c-68.114-5.432-122.064-59.353-127.51-126.968l-21.823-0.49v170.667zM192 458.667h298.667v-170.667h-171.208c-5.432 68.114-59.353 122.064-126.968 127.51l-0.49 43.157zM192 394.125c56.324-5.34 100.766-49.796 106.047-105.655l-106.047-0.47v106.125zM170.667 394.083v-106.083h-106.125c5.34 56.324 49.796 100.766 105.655 106.047zM21.333 266.667h149.333v-298.667h-149.333v298.667zM192 266.667h149.333v-298.667h-149.333v298.667zM298.667 224l-85.333-106.667h65.542l-44.208-85.333 85.333 106.667h-64.958l43.625 85.333z" />
<glyph unicode="&#xe664;" glyph-name="trickle-humidifier_bg" data-tags="trickle-humidifier_bg" d="M85.333 821.333h853.333v-938.667h-853.333z" />
<glyph unicode="&#xe665;" glyph-name="trickle-humidifier_fg" data-tags="trickle-humidifier_fg" d="M42.667 864v-1024h938.667v1024h-938.667zM85.333 821.333h213.333v-85.333h42.667v85.333h469.333v-85.333h42.667v85.333h85.333v-725.333h-725.333v384h341.333v-128h-88.667l108.333-170.667 108.333 170.667h-85.333v170.667h-426.667v-426.667h-85.333v725.333zM298.667 650.667v-85.333h42.667v85.333h-42.667zM810.667 650.667v-85.333h42.667v85.333h-42.667zM298.667 437.333v-85.333h42.667v85.333h-42.667zM810.667 437.333v-85.333h42.667v85.333h-42.667zM298.667 266.667v-85.333h42.667v85.333h-42.667zM810.667 266.667v-85.333h42.667v85.333h-42.667zM85.333 53.333h85.333v-170.667h-85.333v170.667zM213.333 53.333h725.333v-170.667h-725.333v170.667z" />
<glyph unicode="&#xe666;" glyph-name="steam-generator_bg" data-tags="steam-generator_bg" d="M512 693.333c-164.949 0-298.667-133.718-298.667-298.667h597.333c0 164.949-133.718 298.667-298.667 298.667zM42.667 348.417v-462.167h938.667v462.167h-938.667z" />
<glyph unicode="&#xe667;" glyph-name="steam-generator_fg" data-tags="steam-generator_fg" d="M469.333 864v-130.917c-168.333-21.036-298.667-164.384-298.667-338.417h-170.667v-554.667h1024v554.667h-170.667c0 174.033-130.334 317.381-298.667 338.417v130.917h-85.333zM512 693.333c164.949 0 298.667-133.718 298.667-298.667h-597.333c0 164.949 133.718 298.667 298.667 298.667zM42.667 348.417h938.667v-462.167h-938.667v462.167z" />
<glyph unicode="&#xe668;" glyph-name="water-steam-convector_bg" data-tags="water-steam-convector_bg" d="M512 693.333c-164.949 0-298.667-133.718-298.667-298.667h597.333c0 164.949-133.718 298.667-298.667 298.667zM42.667 348.417v-462.167h938.667v462.167h-938.667z" />
<glyph unicode="&#xe669;" glyph-name="water-steam-convector_fg" data-tags="water-steam-convector_fg" d="M469.333 864v-130.917c-168.333-21.036-298.667-164.384-298.667-338.417h-170.667v-554.667h1024v554.667h-170.667c0 174.033-130.334 317.381-298.667 338.417v130.917h-85.333zM512 693.333c164.949 0 298.667-133.718 298.667-298.667h-597.333c0 164.949 133.718 298.667 298.667 298.667zM42.667 348.417h883.5l-883.5-438.333v438.333zM981.333 328.167v-441.917h-890.667l890.667 441.917z" />
<glyph unicode="&#xe66a;" glyph-name="heating-refrigeration-machine_bg" data-tags="heating-refrigeration-machine_bg" d="M42.667 821.333h896v-938.667h-896z" />
<glyph unicode="&#xe66b;" glyph-name="heating-refrigeration-machine_fg" data-tags="heating-refrigeration-machine_fg" d="M0 864v-1024h981.333v1024h-981.333zM42.667 821.333h896v-725.333h-896v725.333zM469.333 693.333v-180.75l-127.833 127.833-31.583-31.583 127.833-127.833h-180.75v-44.667h180.75l-127.833-127.833 31.583-31.583 127.833 127.833v-180.75h44.667v180.75l127.833-127.833 31.583 31.583-127.833 127.833h180.75v44.667h-180.75l127.833 127.833-31.583 31.583-127.833-127.833v180.75h-44.667zM42.667 53.333h896v-170.667h-896v170.667z" />
<glyph unicode="&#xe66c;" glyph-name="compression-refrigeration-heating-machine_bg" data-tags="compression-refrigeration-heating-machine_bg" d="M42.667 821.333v-938.667h938.667v938.667h-938.667z" />
<glyph unicode="&#xe66d;" glyph-name="compression-refrigeration-heating-machine_fg" data-tags="compression-refrigeration-heating-machine_fg" d="M0 864v-1024h1024v1024h-1024zM42.667 821.333h938.667v-810.667h-938.667v810.667zM512 778.667c-10.558-0.109-20.817-0.652-30.954-1.611l0.371 0.861-0.583-0.833c-186.347-16.553-331.37-171.862-331.5-361.070 0-200.309 162.371-362.68 362.667-362.68s362.667 162.371 362.667 362.667c-0.218 187.268-142.338 341.275-324.604 360.285l-3.146 2.382-2.5-1.75c-9.579 1.008-20.846 1.641-32.239 1.749zM512 733.333c5.723-0.148 10.997-0.418 16.234-0.815l286.599-411.102c-41.55-130.125-161.374-222.715-302.829-222.75-139.698 0.187-258.223 90.608-300.435 216.096l6.264 12.071 284.167 406.167c2.715 0.145 6.204 0.266 9.707 0.329zM445 725.833l-247-353.083c-1.991 12.897-3.198 27.873-3.332 43.104 0.169 151.526 106.311 278.066 248.222 309.585zM584.833 724.5c141.111-34.113 244.324-159.228 244.5-308.48-0.074-13.286-0.95-26.269-2.582-39.015l-241.918 347.496zM490.667 522.667v-119.167l-84.25 84.25-30.167-30.167 84.25-84.25h-119.167v-42.667h119.167l-84.25-84.25 30.167-30.167 84.25 84.25v-119.167h42.667v119.167l84.25-84.25 30.167 30.167-84.25 84.25h119.167v42.667h-119.167l84.25 84.25-30.167 30.167-84.25-84.25v119.167h-42.667zM42.667-32h938.667v-85.333h-938.667v85.333z" />
<glyph unicode="&#xe66e;" glyph-name="compression-refrigeration-machine-block_bg" data-tags="compression-refrigeration-machine-block_bg" d="M21.333 586.667v-469.333h981.333v469.333z" />
<glyph unicode="&#xe66f;" glyph-name="compression-refrigeration-machine-block_fg" data-tags="compression-refrigeration-machine-block_fg" d="M0 608v-512h1024v512h-1024zM21.333 586.667h95.292l1.333-3.625 80.125-220.375h-150.667l111.542-245.333h-137.625v469.333zM139.375 586.667h116.625v-469.333h-73.625l-2 4.417-99.792 219.583h147.958l-89.167 245.333zM277.333 586.667h469.333v-384h-469.333v384zM768 586.667h95.292l1.333-3.625 80.125-220.375h-150.667l111.542-245.333h-137.625v469.333zM886.042 586.667h116.625v-469.333h-73.625l-2 4.417-99.792 219.583h147.958l-89.167 245.333zM512 565.333c-94.257 0-170.667-76.41-170.667-170.667s76.41-170.667 170.667-170.667c71.865 0.004 133.354 44.425 158.511 107.308l1.281 1.65-0.417 0.75c7.137 18.087 11.28 39.037 11.292 60.954 0 94.261-76.41 170.671-170.667 170.671zM512 544c4.88-0.027 9.661-0.284 14.378-0.76l121.163-210.907c-24.175-51.725-75.738-86.934-135.533-87-59.393 0.065-110.654 34.782-134.663 85.016l122.071 213.025c3.723 0.365 8.101 0.591 12.524 0.625zM472 538.542l-104.5-181.042c-3.025 11.139-4.786 23.937-4.833 37.138 0.001 68.265 45.768 125.811 108.28 143.646zM553.375 538.042c62.826-18.54 107.906-75.686 107.958-143.369-0.071-12.735-1.723-25.045-4.77-36.793l-103.188 180.162zM501.333 437.333v-48.917l-34.583 34.583-15.083-15.083 34.583-34.583h-48.917v-21.333h48.917l-34.583-34.583 15.083-15.083 34.583 34.583v-48.917h21.333v48.917l34.583-34.583 15.083 15.083-34.583 34.583h48.917v21.333h-48.917l34.583 34.583-15.083 15.083-34.583-34.583v48.917h-21.333zM277.333 181.333h469.333v-64h-469.333v64z" />
<glyph unicode="&#xe670;" glyph-name="compression-refrigeration-machine-split_bg" data-tags="compression-refrigeration-machine-split_bg" d="M14.222 508.444v-241.778h270.222v241.778h-270.222zM426.667 508.444v-312.889h284.444v312.889h-284.444zM725.333 508.444v-312.889h284.444v312.889h-284.444z" />
<glyph unicode="&#xe671;" glyph-name="compression-refrigeration-machine-split_fg" data-tags="compression-refrigeration-machine-split_fg" d="M0 522.667v-270.222h142.222v-28.444h14.222v28.444h142.222v270.222zM412.444 522.667v-341.333h611.556v341.333h-312.889zM24.889 508.444h248.889l-124.444-111.333zM426.667 508.444h284.444v-256h-284.444zM725.333 508.444h274.861l-274.861-302.333zM14.222 498.889l124.444-111.333-124.444-111.333zM284.444 498.889v-222.667l-124.444 111.333zM1009.778 497.889v-302.333h-274.861zM568.889 494.222c-62.838 0-113.778-50.94-113.778-113.778s50.94-113.778 113.778-113.778c46.83 0.002 88.875 28.698 105.944 72.306l0.583 0.333-0.278 0.5c4.969 12.973 7.52 26.747 7.528 40.639 0 62.838-50.94 113.778-113.778 113.778zM753.778 465.778v-14.222l85.333-0.222v14.222zM568.889 480c3.061-0.016 6.12-0.174 9.167-0.472l81.194-140.639c-16.22-35.311-51.503-57.958-90.361-58-38.571 0.041-73.648 22.357-90.028 57.278l81.639 141.417c2.789 0.257 5.588 0.396 8.389 0.417zM542.222 476.361l-69.667-120.694c-2.11 8.091-3.193 16.416-3.222 24.778 0 44.713 29.81 83.94 72.889 95.917zM596.472 476.028c42.596-12.283 71.939-51.251 71.972-95.583-0.044-8.038-1.060-16.040-3.028-23.833zM753.778 423.111v-14.222l85.333-0.222v14.222zM561.778 408.889v-32.611l-23.056 23.056-10.056-10.056 23.056-23.056h-32.611v-14.222h32.611l-23.056-23.056 10.056-10.056 23.056 23.056v-32.611h14.222v32.611l23.056-23.056 10.056 10.056-23.056 23.056h32.611v14.222h-32.611l23.056 23.056-10.056 10.056-23.056-23.056v32.611zM753.778 380.444v-14.222l85.333-0.222v14.222zM149.333 378l124.444-111.333h-248.889zM113.778 337.778v-56.889h14.222v56.889zM142.222 337.778v-56.889h14.222v56.889zM170.667 337.778v-56.889h14.222v56.889zM426.667 238.222h284.444v-42.667h-284.444zM142.222 209.778v-14.222h28.444v14.222zM199.111 209.778v-14.222h28.444v14.222zM256 209.778v-14.222h28.444v14.222zM312.889 209.778v-14.222h28.444v14.222zM369.778 209.778v-14.222h28.444v14.222z" />
<glyph unicode="&#xe672;" glyph-name="cooling-tower-with-ventilator_bg" data-tags="cooling-tower-with-ventilator_bg" d="M245.333 821.333l-202.667-640v-170.667h933.333l5.333 170.667-202.667 640h-533.333zM40-32l2.667-85.333h938.667l-2.667 85.333h-938.667z" />
<glyph unicode="&#xe673;" glyph-name="cooling-tower-with-ventilator_fg" data-tags="cooling-tower-with-ventilator_fg" d="M213.333 864v-1.333l-213.333-681.333v-341.333h1024v341.333l-213.333 681.333v1.333h-597.333zM245.333 821.333h533.333l202.667-640-5.333-170.667h-933.333v170.667l202.667 640zM512 736c-188.513 0-341.333-152.82-341.333-341.333s152.82-341.333 341.333-341.333c140.489 0.007 266.625 86.093 317.833 216.917l1.75 1-0.833 1.5c14.908 38.919 22.562 80.24 22.583 121.917 0 188.513-152.82 341.333-341.333 341.333zM512 693.333c9.184-0.051 18.36-0.522 27.5-1.417l243.583-421.917c-48.66-105.934-154.508-173.875-271.083-174-115.713 0.122-220.944 67.072-270.083 171.833l244.917 424.25c8.368 0.771 16.764 1.187 25.167 1.25zM432 682.417l-209-362.083c-6.331 24.274-9.579 49.248-9.667 74.333 0.001 134.138 89.43 251.82 218.667 287.75zM594.75 681.417c127.789-36.848 215.817-153.754 215.917-286.75-0.132-24.113-3.18-48.121-9.083-71.5l-206.833 358.25zM40-32h938.667l2.667-85.333h-938.667l-2.667 85.333z" />
<glyph unicode="&#xe674;" glyph-name="fan-coil-downstream-regulated-two-pipes_bg" data-tags="fan-coil-downstream-regulated-two-pipes_bg" d="M42.667 821.333v-938.667h768v938.667h-768z" />
<glyph unicode="&#xe675;" glyph-name="fan-coil-downstream-regulated-two-pipes_fg" data-tags="fan-coil-downstream-regulated-two-pipes_fg" d="M0 864v-1024h853.333v1024h-853.333zM896 864v-1024h42.667v170.667h85.333v42.667h-85.333v597.333h85.333v42.667h-85.333v170.667h-42.667zM42.667 821.333h768v-938.667h-768v938.667zM128 736v-42.667h597.333v42.667h-597.333zM426.667 565.333c-164.949 0-298.667-133.718-298.667-298.667s133.718-298.667 298.667-298.667c164.949 0 298.667 133.718 298.667 298.667s-133.718 298.667-298.667 298.667zM426.667 522.667c9.915 0 19.653-0.137 29.333-1.333l160-424c-47.467-52.777-115.652-86.667-189.333-86.667s-141.866 33.89-189.333 86.667l160 424c9.68 1.196 19.419 1.333 29.333 1.333zM346.667 508l-140-368c-22.463 37.805-36 81.057-36 126.667 0 109.6 75.776 206.285 176 241.333zM506.667 508c100.224-35.048 176-131.733 176-241.333 0-45.61-13.537-88.861-36-126.667l-140 368z" />
<glyph unicode="&#xe676;" glyph-name="fan-coil-upstream-regulated-two-pipes_bg" data-tags="fan-coil-upstream-regulated-two-pipes_bg" d="M42.667 821.333v-938.667h768v938.667h-768z" />
<glyph unicode="&#xe677;" glyph-name="fan-coil-upstream-regulated-two-pipes_fg" data-tags="fan-coil-upstream-regulated-two-pipes_fg" d="M0 864v-981.333h352.917c15.004-25.644 42.389-42.609 73.742-42.667 31.401 0.026 58.824 16.999 73.624 42.264l353.051 0.403v981.333h-853.333zM896 864v-1024h42.667v170.667h85.333v42.667h-85.333v597.333h85.333v42.667h-85.333v170.667h-42.667zM42.667 821.333h768v-896h-298.667c0 0.003 0 0.007 0 0.011 0 7.638-1.003 15.041-2.886 22.085l197.219 130.82-23.667 35.5-194.25-129.5c-15.568 16.29-37.466 26.417-61.73 26.417-0.007 0-0.014 0-0.021 0-24.251-0.042-46.123-10.194-61.633-26.466l-194.366 129.549-23.667-35.5 197.167-131.417c-1.773-6.443-2.805-13.845-2.833-21.483l-298.667-0.017v896zM128 778.667v-42.667h597.333v42.667h-597.333zM426.667 693.333c-164.949 0-298.667-133.718-298.667-298.667s133.718-298.667 298.667-298.667c164.949 0 298.667 133.718 298.667 298.667s-133.718 298.667-298.667 298.667zM426.667 650.667c9.915 0 19.653-0.137 29.333-1.333l160-424c-47.467-52.777-115.652-86.667-189.333-86.667s-141.866 33.89-189.333 86.667l160 424c9.68 1.196 19.419 1.333 29.333 1.333zM346.667 636l-140-368c-22.463 37.805-36 81.057-36 126.667 0 109.6 75.776 206.285 176 241.333zM506.667 636c100.224-35.048 176-131.733 176-241.333 0-45.61-13.537-88.861-36-126.667l-140 368z" />
<glyph unicode="&#xe678;" glyph-name="fan-coil-upstream-regulated-four-pipes_bg" data-tags="fan-coil-upstream-regulated-four-pipes_bg" d="M42.667 821.333v-938.667h768v938.667h-768z" />
<glyph unicode="&#xe679;" glyph-name="fan-coil-upstream-regulated-four-pipes_fg" data-tags="fan-coil-upstream-regulated-four-pipes_fg" d="M0 864v-981.333h352.917c15.004-25.644 42.389-42.609 73.742-42.667 31.401 0.026 58.824 16.999 73.624 42.264l353.051 0.403v981.333h-853.333zM896 864v-1024h42.667v170.667h85.333v42.667h-85.333v170.667h85.333v42.667h-85.333v170.667h85.333v42.667h-85.333v170.667h85.333v42.667h-85.333v170.667h-42.667zM42.667 821.333h768v-896h-298.667c0 0.003 0 0.007 0 0.011 0 7.638-1.003 15.041-2.886 22.085l197.219 130.82-23.667 35.5-194.25-129.5c-15.568 16.29-37.466 26.417-61.73 26.417-0.007 0-0.014 0-0.021 0-24.251-0.042-46.123-10.194-61.633-26.466l-194.366 129.549-23.667-35.5 197.167-131.417c-1.773-6.443-2.805-13.845-2.833-21.483l-298.667-0.017v896zM128 778.667v-42.667h597.333v42.667h-597.333zM426.667 693.333c-164.949 0-298.667-133.718-298.667-298.667s133.718-298.667 298.667-298.667c164.949 0 298.667 133.718 298.667 298.667s-133.718 298.667-298.667 298.667zM426.667 650.667c9.915 0 19.653-0.137 29.333-1.333l160-424c-47.467-52.777-115.652-86.667-189.333-86.667s-141.866 33.89-189.333 86.667l160 424c9.68 1.196 19.419 1.333 29.333 1.333zM346.667 636l-140-368c-22.463 37.805-36 81.057-36 126.667 0 109.6 75.776 206.285 176 241.333zM506.667 636c100.224-35.048 176-131.733 176-241.333 0-45.61-13.537-88.861-36-126.667l-140 368z" />
<glyph unicode="&#xe67a;" glyph-name="fan-coil-downstream-regulated-four-pipes_bg" data-tags="fan-coil-downstream-regulated-four-pipes_bg" d="M42.667 821.333v-938.667h768v938.667h-768z" />
<glyph unicode="&#xe67b;" glyph-name="fan-coil-downstream-regulated-four-pipes_fg" data-tags="fan-coil-downstream-regulated-four-pipes_fg" d="M0 864v-1024h853.333v1024h-853.333zM896 864v-1024h42.667v170.667h85.333v42.667h-85.333v170.667h85.333v42.667h-85.333v170.667h85.333v42.667h-85.333v170.667h85.333v42.667h-85.333v170.667h-42.667zM42.667 821.333h768v-938.667h-768v938.667zM128 736v-42.667h597.333v42.667h-597.333zM426.667 565.333c-164.949 0-298.667-133.718-298.667-298.667s133.718-298.667 298.667-298.667c164.949 0 298.667 133.718 298.667 298.667s-133.718 298.667-298.667 298.667zM426.667 522.667c9.915 0 19.653-0.137 29.333-1.333l160-424c-47.467-52.777-115.652-86.667-189.333-86.667s-141.866 33.89-189.333 86.667l160 424c9.68 1.196 19.419 1.333 29.333 1.333zM346.667 508l-140-368c-22.463 37.805-36 81.057-36 126.667 0 109.6 75.776 206.285 176 241.333zM506.667 508c100.224-35.048 176-131.733 176-241.333 0-45.61-13.537-88.861-36-126.667l-140 368z" />
<glyph unicode="&#xe67c;" glyph-name="induction-unit_bg" data-tags="induction-unit_bg" d="M213.333 821.333h768v-938.667h-768z" />
<glyph unicode="&#xe67d;" glyph-name="induction-unit_fg" data-tags="induction-unit_fg" d="M170.667 864v-469.333h-170.667v-42.667h170.667v-512h853.333v1024h-853.333zM213.333 821.333h768v-938.667h-768v469.333h682.667v42.667h-682.667v426.667zM298.667 650.667v-42.667h597.333v42.667h-597.333z" />
<glyph unicode="&#xe67e;" glyph-name="induction-unit-downstream-regulated-two-pipes_bg" data-tags="induction-unit-downstream-regulated-two-pipes_bg" d="M213.333 821.333h597.333v-938.667h-597.333z" />
<glyph unicode="&#xe67f;" glyph-name="induction-unit-downstream-regulated-two-pipes_fg" data-tags="induction-unit-downstream-regulated-two-pipes_fg" d="M170.667 864v-469.333h-170.667v-42.667h170.667v-512h682.667v1024h-682.667zM896 864v-1024h42.667v170.667h85.333v42.667h-85.333v597.333h85.333v42.667h-85.333v170.667h-42.667zM213.333 821.333h597.333v-938.667h-597.333v469.333h512v42.667h-512v426.667zM298.667 650.667v-42.667h426.667v42.667h-426.667z" />
<glyph unicode="&#xe680;" glyph-name="induction-unit-upstream-regulated-two-pipes_bg" data-tags="induction-unit-upstream-regulated-two-pipes_bg" d="M170.667 821.333h640v-896h-640z" />
<glyph unicode="&#xe681;" glyph-name="induction-unit-upstream-regulated-two-pipes_fg" data-tags="induction-unit-upstream-regulated-two-pipes_fg" d="M128 864v-469.333h-128v-42.667h128v-469.333h287.583c15.004-25.644 42.389-42.609 73.742-42.667 31.401 0.026 58.824 16.999 73.624 42.264l290.385 0.403v981.333h-725.333zM896 864v-981.333h42.667v170.667h85.333v42.667h-85.333v554.667h85.333v42.667h-85.333v170.667h-42.667zM170.667 821.333h640v-896h-236c0 0.003 0 0.007 0 0.011 0 7.638-1.003 15.041-2.886 22.085l197.219 130.82-23.667 35.5-194.25-129.5c-0.164 0.172-0.335 0.33-0.5 0.5-3.796 3.914-7.938 7.448-12.392 10.568-0.377 0.253-0.588 0.362-0.691 0.432-8.806 6.108-19.176 10.683-30.358 13.067-5.728 1.213-11.666 1.85-17.752 1.85-0.020 0-0.040 0-0.060 0-5.796-0.032-11.434-0.637-16.882-1.762-0.12-0.037-0.78-0.173-1.448-0.321-5.582-1.244-10.425-2.82-15.058-4.794 0.050-0.001-0.439-0.233-0.942-0.456-10.661-4.761-19.736-11.221-27.303-19.135l-194.364 129.551-23.667-35.5 197.167-131.417c-1.773-6.443-2.805-13.845-2.833-21.483l-233.333-0.017v426.667h554.667v42.667h-554.667v426.667zM256 650.667v-42.667h469.333v42.667h-469.333z" />
<glyph unicode="&#xe682;" glyph-name="induction-unit-downstream-regulated-four-pipes_bg" data-tags="induction-unit-downstream-regulated-four-pipes_bg" d="M213.333 821.333h597.333v-938.667h-597.333z" />
<glyph unicode="&#xe683;" glyph-name="induction-unit-downstream-regulated-four-pipes_fg" data-tags="induction-unit-downstream-regulated-four-pipes_fg" d="M170.667 864v-469.333h-170.667v-42.667h170.667v-512h682.667v1024h-682.667zM896 864v-1024h42.667v170.667h85.333v42.667h-85.333v170.667h85.333v42.667h-85.333v170.667h85.333v42.667h-85.333v170.667h85.333v42.667h-85.333v170.667h-42.667zM213.333 821.333h597.333v-938.667h-597.333v469.333h512v42.667h-512v426.667zM298.667 650.667v-42.667h426.667v42.667h-426.667z" />
<glyph unicode="&#xe684;" glyph-name="induction-unit-upstream-regulated-four-pipes_bg" data-tags="induction-unit-upstream-regulated-four-pipes_bg" d="M170.667 821.333h640v-896h-640z" />
<glyph unicode="&#xe685;" glyph-name="induction-unit-upstream-regulated-four-pipes_fg" data-tags="induction-unit-upstream-regulated-four-pipes_fg" d="M128 864v-469.333h-128v-42.667h128v-469.333h287.583c15.004-25.644 42.389-42.609 73.742-42.667 31.401 0.026 58.824 16.999 73.624 42.264l290.385 0.403v981.333h-725.333zM896 864v-981.333h42.667v170.667h85.333v42.667h-85.333v554.667h85.333v42.667h-85.333v170.667h-42.667zM170.667 821.333h640v-896h-236c0 0.003 0 0.007 0 0.011 0 7.638-1.003 15.041-2.886 22.085l197.219 130.82-23.667 35.5-194.25-129.5c-0.164 0.172-0.335 0.33-0.5 0.5-3.796 3.914-7.938 7.448-12.392 10.568-0.377 0.253-0.588 0.362-0.691 0.432-8.806 6.108-19.176 10.683-30.358 13.067-5.728 1.213-11.666 1.85-17.752 1.85-0.020 0-0.040 0-0.060 0-5.796-0.032-11.434-0.637-16.882-1.762-0.12-0.037-0.78-0.173-1.448-0.321-5.582-1.244-10.425-2.82-15.058-4.794 0.050-0.001-0.439-0.233-0.942-0.456-10.661-4.761-19.736-11.221-27.303-19.135l-194.364 129.551-23.667-35.5 197.167-131.417c-1.773-6.443-2.805-13.845-2.833-21.483l-233.333-0.017v426.667h554.667v42.667h-554.667v426.667zM256 650.667v-42.667h469.333v42.667h-469.333z" />
<glyph unicode="&#xe686;" glyph-name="induction-unit-upstream-regulated-by-variable-volume-flow-two-pipes_bg" data-tags="induction-unit-upstream-regulated-by-variable-volume-flow-two-pipes_bg" d="M213.333 821.333h597.333v-938.667h-597.333z" />
<glyph unicode="&#xe687;" glyph-name="induction-unit-upstream-regulated-by-variable-volume-flow-two-pipes_fg" data-tags="induction-unit-upstream-regulated-by-variable-volume-flow-two-pipes_fg" d="M170.667 864v-469.333h-170.667v-42.667h170.667v-512h682.667v1024h-682.667zM896 864v-1024h42.667v170.667h85.333v42.667h-85.333v597.333h85.333v42.667h-85.333v170.667h-42.667zM213.333 821.333h597.333v-938.667h-597.333v469.333h512v42.667h-512v426.667zM298.667 650.667v-42.667h426.667v42.667h-426.667zM667.583 281.75l-100.417-100.417h-268.5v-42.667h225.833l-42.667-42.667h-183.167v-42.667h140.5l-112.917-112.917 30.167-30.167 143.083 143.083h225.833v42.667h-183.167l42.667 42.667h140.5v42.667h-97.833l70.25 70.25-30.167 30.167z" />
<glyph unicode="&#xe688;" glyph-name="constant-volume-flow-controller_bg" data-tags="constant-volume-flow-controller_bg" d="M42.667 821.333h938.667v-938.667h-938.667z" />
<glyph unicode="&#xe689;" glyph-name="constant-volume-flow-controller_fg" data-tags="constant-volume-flow-controller_fg" d="M0 864v-1024h1024v1024h-1024zM42.667 821.333h938.667v-88l-938.667-122.667v210.667zM981.333 692v-678.667l-938.667 122.667v433.333l938.667 122.667zM512 437.333v-42.667h341.333v42.667h-341.333zM512 309.333v-42.667h341.333v42.667h-341.333zM42.667 94.667l938.667-122.667v-89.333h-938.667v212z" />
<glyph unicode="&#xe68a;" glyph-name="variable-volume-flow-controller_bg" data-tags="variable-volume-flow-controller_bg" d="M42.667 821.333h938.667v-938.667h-938.667z" />
<glyph unicode="&#xe68b;" glyph-name="variable-volume-flow-controller_fg" data-tags="variable-volume-flow-controller_fg" d="M0 864v-1024h1024v1024h-1024zM42.667 821.333h938.667v-88l-938.667-122.667v210.667zM981.333 692v-678.667l-938.667 122.667v433.333l938.667 122.667zM792.333 576.333l-83.417-139h-196.917v-42.667h171.333l-51.167-85.333h-120.167v-42.667h94.5l-70.167-117 36.667-22 83.417 139h196.917v42.667h-171.333l51.167 85.333h120.167v42.667h-94.5l70.167 117-36.667 22zM42.667 94.667l938.667-122.667v-89.333h-938.667v212z" />
<glyph unicode="&#xe68c;" glyph-name="flow-regulator_bg" data-tags="flow-regulator_bg" d="M42.667 821.333h938.667v-938.667h-938.667z" />
<glyph unicode="&#xe68d;" glyph-name="flow-regulator_fg" data-tags="flow-regulator_fg" d="M0 864v-1024h1024v1024h-1024zM42.667 821.333h938.667v-88l-938.667-122.667v210.667zM981.333 692v-678.667l-938.667 122.667v433.333l938.667 122.667zM792.333 576.333l-109-181.667h-171.333v-42.667h145.75l-121.417-202.333 36.667-22 134.583 224.333h145.75v42.667h-120.167l95.833 159.667-36.667 22zM42.667 94.667l938.667-122.667v-89.333h-938.667v212z" />
<glyph unicode="&#xe68e;" glyph-name="constant-volume-flow-controller-auxiliary-energy_bg" data-tags="constant-volume-flow-controller-auxiliary-energy_bg" d="M42.667 821.333h938.667v-938.667h-938.667z" />
<glyph unicode="&#xe68f;" glyph-name="constant-volume-flow-controller-auxiliary-energy_fg" data-tags="constant-volume-flow-controller-auxiliary-energy_fg" d="M0 864v-1024h1024v1024h-1024zM42.667 821.333h938.667v-88l-938.667-122.667v210.667zM981.333 692v-678.667l-938.667 122.667v433.333l938.667 122.667zM362.667 544c-106.039 0-192-85.961-192-192s85.961-192 192-192c74.885 0.065 139.729 42.991 171.33 105.567l319.337 1.099v42.667h-303.75c3.135 12.784 4.982 27.485 5.083 42.6-0.071 15.233-1.889 29.939-5.264 44.041l303.931-1.307v42.667h-318.917c-32.092 63.651-96.897 106.568-171.737 106.667zM362.667 501.333c82.475 0 149.333-66.859 149.333-149.333s-66.859-149.333-149.333-149.333c-82.475 0-149.333 66.859-149.333 149.333s66.859 149.333 149.333 149.333zM42.667 94.667l938.667-122.667v-89.333h-938.667v212z" />
<glyph unicode="&#xe690;" glyph-name="variable-volume-flow-controller-auxiliary-energy_bg" data-tags="variable-volume-flow-controller-auxiliary-energy_bg" d="M42.667 821.333h938.667v-938.667h-938.667z" />
<glyph unicode="&#xe691;" glyph-name="variable-volume-flow-controller-auxiliary-energy_fg" data-tags="variable-volume-flow-controller-auxiliary-energy_fg" d="M-0.667 864v-1024h1024.667v1024h-1024.667zM42.667 821.333h938v-88l-938-122.583v210.583zM980.667 691.917v-678.5l-938 122.583v433.333l938 122.583zM791.667 576.333l-83.417-139h-173.833c-32.092 63.651-96.897 106.568-171.737 106.667-106.052 0-192.013-85.961-192.013-192s85.961-192 192-192c74.885 0.065 139.729 42.991 171.33 105.567l71.837 1.099-70.167-117 36.667-22 83.417 139h197.583v42.667h-172l51.167 85.333h120.833v42.667h-95.167l70.167 117-36.667 22zM362.667 501.333c82.475 0 149.333-66.859 149.333-149.333s-66.859-149.333-149.333-149.333c-82.475 0-149.333 66.859-149.333 149.333s66.859 149.333 149.333 149.333zM549.667 394.667h133l-51.167-85.333h-81.917c3.135 12.784 4.982 27.485 5.083 42.6-0.071 15.233-1.889 29.939-5.264 44.041zM42.667 94.583l938-122.583v-89.333h-938v211.917z" />
<glyph unicode="&#xe692;" glyph-name="volume-flow-regulator-auxiliary-energy_bg" data-tags="volume-flow-regulator-auxiliary-energy_bg" d="M42.667 821.333h938.667v-938.667h-938.667z" />
<glyph unicode="&#xe693;" glyph-name="volume-flow-regulator-auxiliary-energy_fg" data-tags="volume-flow-regulator-auxiliary-energy_fg" d="M0 864v-1024h1024v1024h-1024zM42.667 821.333h938.667v-88l-938.667-122.667v210.667zM981.333 692v-678.667l-938.667 122.667v433.333l938.667 122.667zM792.333 576.333l-121.833-203h-117.083c-10.897 96.618-92.125 171.026-190.744 171.083-106.045 0-192.006-85.961-192.006-192s85.961-192 192-192c98.264 0.139 179.216 74.075 190.414 169.348l91.836 0.902-108.583-181 36.667-22 121.833 203h158.5v42.667h-132.917l108.583 181-36.667 22zM362.667 501.75c82.475 0 149.333-66.859 149.333-149.333s-66.859-149.333-149.333-149.333c-82.475 0-149.333 66.859-149.333 149.333s66.859 149.333 149.333 149.333zM42.667 94.667l938.667-122.667v-89.333h-938.667v212z" />
<glyph unicode="&#xe694;" glyph-name="mixing-regulator-auxiliary-energy-1-actuator_bg" data-tags="mixing-regulator-auxiliary-energy-1-actuator_bg" d="M266.667 842.667c-88.366 0-160-71.634-160-160s71.634-160 160-160c88.366 0 160 71.634 160 160s-71.634 160-160 160zM21.333 330.667v-471.792h490.667v471.792h-490.667zM533.333 330.667v-469.333h469.333v469.333h-469.333z" />
<glyph unicode="&#xe695;" glyph-name="mixing-regulator-auxiliary-energy-1-actuator_fg" data-tags="mixing-regulator-auxiliary-energy-1-actuator_fg" d="M266.667 864c-100.148 0-181.333-81.186-181.333-181.333 0.032-95.981 74.852-175.312 170.667-180.958v-149.708h-256v-512h1024v512h-746.667v149.875c95.751 5.642 170.546 84.875 170.667 180.792 0 100.148-81.186 181.333-181.333 181.333zM266.667 842.667c88.366 0 160-71.634 160-160s-71.634-160-160-160c-88.366 0-160 71.634-160 160s71.634 160 160 160zM21.333 330.667h234.667v-85.333h-234.667zM277.333 330.667h234.667v-469.333h-490.667v85.333h405.333v21.333h-405.333v256h234.667v-43l-60.458-50.375c-7.246 5.217-15.946 8.030-24.875 8.042-23.564 0-42.667-19.103-42.667-42.667s19.103-42.667 42.667-42.667c8.929 0.012 17.629 2.824 24.875 8.042l96.292-80.25 13.667 16.417-28.167 21.966v151.492l28.167 23.458-13.667 16.417-14.5-12.083v25.208h149.333v21.333h-149.333zM533.333 330.667h469.333v-44l-469.333-61.333zM1002.667 266v-339.333l-469.333 61.333v216.667zM908.167 208.167l-60.917-101.5h-58.542c-5.333 48.66-46.424 85.514-95.375 85.542-53.019 0-96-42.981-96-96s42.981-96 96-96c48.761 0.066 89.726 36.678 95.25 85.125h45.875l-54.292-90.5 18.333-11 60.917 101.5h79.25v21.333h-66.458l54.292 90.5zM693.333 170.875c41.237 0 74.667-33.429 74.667-74.667s-33.429-74.667-74.667-74.667c-41.237 0-74.667 33.429-74.667 74.667s33.429 74.667 74.667 74.667zM256 153.208v-114.417l-46.792 39c2.702 5.69 4.111 11.909 4.125 18.208-0.014 6.3-1.423 12.518-4.125 18.208zM533.333-32.667l469.333-61.333v-44.667h-469.333z" />
<glyph unicode="&#xe696;" glyph-name="mixer-controller_bg" data-tags="mixer-controller_bg" d="M21.333 586.667v-469.333h490.667v469.333h-490.667zM533.333 586.667v-469.333h469.333v469.333h-469.333z" />
<glyph unicode="&#xe697;" glyph-name="mixer-controller_fg" data-tags="mixer-controller_fg" d="M0 608v-512h1024v512h-512zM21.333 586.667h490.667v-469.333h-490.667v85.333h405.333v21.333h-405.333v256h405.333v21.333h-405.333zM533.333 586.667h469.333v-44l-469.333-61.333zM1002.667 522v-339.333l-469.333 61.333v216.667zM291.833 466.875l-96.292-80.25c-7.246 5.217-15.946 8.030-24.875 8.042-23.564 0-42.667-19.103-42.667-42.667s19.103-42.667 42.667-42.667c8.929 0.012 17.629 2.824 24.875 8.042l96.292-80.25 13.667 16.417-96.292 80.25c2.702 5.69 4.111 11.909 4.125 18.208-0.014 6.3-1.423 12.518-4.125 18.208l96.292 80.25zM533.333 223.333l469.333-61.333v-44.667h-469.333z" />
<glyph unicode="&#xe698;" glyph-name="mixer-controller-constant-flow-rate_bg" data-tags="mixer-controller-constant-flow-rate_bg" d="M21.333 586.667v-469.333h490.667v469.333h-490.667zM533.333 586.667v-469.333h469.333v469.333h-469.333z" />
<glyph unicode="&#xe699;" glyph-name="mixer-controller-constant-flow-rate_fg" data-tags="mixer-controller-constant-flow-rate_fg" d="M0 608v-512h1024v512h-1024zM21.333 586.667h490.667v-469.333h-490.667v85.333h405.333v21.333h-405.333v256h405.333v21.333h-405.333v85.333zM533.333 586.667h469.333v-44l-469.333-61.333v105.333zM1002.667 522v-339.333l-469.333 61.333v216.667l469.333 61.333zM291.833 466.875l-96.292-80.25c-7.246 5.217-15.946 8.030-24.875 8.042-23.564 0-42.667-19.103-42.667-42.667s19.103-42.667 42.667-42.667c8.929 0.012 17.629 2.824 24.875 8.042l96.292-80.25 13.667 16.417-96.292 80.25c2.702 5.69 4.111 11.909 4.125 18.208-0.014 6.3-1.423 12.518-4.125 18.208l96.292 80.25-13.667 16.417zM768 394.667v-21.333h170.667v21.333h-170.667zM768 330.667v-21.333h170.667v21.333h-170.667zM533.333 223.333l469.333-61.333v-44.667h-469.333v106z" />
<glyph unicode="&#xe69a;" glyph-name="mixer-controler-variable-flow-rate_bg" data-tags="mixer-controler-variable-flow-rate_bg" d="M21.333 586.667v-469.333h490.667v469.333h-490.667zM533.333 586.667v-469.333h469.333v469.333h-469.333z" />
<glyph unicode="&#xe69b;" glyph-name="mixer-controller-variable-flow-rate_fg" data-tags="mixer-controller-variable-flow-rate_fg" d="M512 609.333v-1.333h-512v-512h1024v513.333h-512zM21.333 586.667h490.667v-469.333h-490.667v85.333h405.333v21.333h-405.333v256h405.333v21.333h-405.333v85.333zM533.333 586.667h469.333v-42.667l-469.333-61.333v104zM1002.667 522v-338l-469.333 61.333v215.333l469.333 61.333zM291.833 466.875l-96.292-80.25c-7.246 5.217-15.946 8.030-24.875 8.042-23.564 0-42.667-19.103-42.667-42.667s19.103-42.667 42.667-42.667c8.929 0.012 17.629 2.824 24.875 8.042l96.292-80.25 13.667 16.417-96.292 80.25c2.702 5.69 4.111 11.909 4.125 18.208-0.014 6.3-1.423 12.518-4.125 18.208l96.292 80.25-13.667 16.417zM908.167 465.5l-41.708-69.5h-98.458v-22.667h84.875l-24.792-41.333h-60.083v-22.667h46.458l-34.292-57.167 18.333-11 40.917 68.167h99.25v22.667h-85.667l24.792 41.333h60.875v22.667h-47.25l35.083 58.5-18.333 11zM533.333 223.333l469.333-61.333v-43.333h-469.333v104.667z" />
<glyph unicode="&#xe69c;" glyph-name="mixing-controller-auxiliary-energy-constant-1-actuator_bg" data-tags="mixing-controller-auxiliary-energy-constant-1-actuator_bg" d="M266.667 842.667c-88.366 0-160-71.634-160-160s71.634-160 160-160c88.366 0 160 71.634 160 160s-71.634 160-160 160zM21.333 330.667v-471.792h490.667v471.792h-490.667zM533.333 330.667v-469.333h469.333v469.333h-469.333z" />
<glyph unicode="&#xe69d;" glyph-name="mixing-controller-auxiliary-energy-constant-1-actuator_fg" data-tags="mixing-controller-auxiliary-energy-constant-1-actuator_fg" d="M266.667 864c-100.148 0-181.333-81.186-181.333-181.333 0.032-95.981 74.852-175.312 170.667-180.958v-149.708h-256v-512h1024v512h-746.667v149.875c95.751 5.642 170.546 84.875 170.667 180.792 0 100.148-81.186 181.333-181.333 181.333zM266.667 842.667c88.366 0 160-71.634 160-160s-71.634-160-160-160c-88.366 0-160 71.634-160 160s71.634 160 160 160zM21.333 330.667h234.667v-85.333h-234.667v85.333zM277.333 330.667h234.667v-469.333h-490.667v85.333h405.333v21.333h-405.333v256h234.667v-43l-60.458-50.375c-7.246 5.217-15.946 8.030-24.875 8.042-23.564 0-42.667-19.103-42.667-42.667s19.103-42.667 42.667-42.667c8.929 0.012 17.629 2.824 24.875 8.042l96.292-80.25 13.667 16.417-28.167 21.958v151.5l28.167 23.458-13.667 16.417-14.5-12.083v25.208h149.333v21.333h-149.333v85.333zM533.333 330.667h469.333v-44l-469.333-61.333v105.333zM1002.667 266v-339.333l-469.333 61.333v216.667l469.333 61.333zM693.333 192c-53.019 0-96-42.981-96-96s42.981-96 96-96c37.443 0.033 69.865 21.496 85.665 52.784l159.668 0.55v21.333h-151.875c1.568 6.392 2.491 13.742 2.542 21.3-0.035 7.617-0.945 14.97-2.632 22.020l151.965-0.654v21.333h-159.458c-16.046 31.826-48.449 53.284-85.868 53.333zM693.333 170.667c41.237 0 74.667-33.429 74.667-74.667s-33.429-74.667-74.667-74.667c-41.237 0-74.667 33.429-74.667 74.667s33.429 74.667 74.667 74.667zM256 153.208v-114.417l-46.792 39c2.702 5.69 4.111 11.909 4.125 18.208-0.014 6.3-1.423 12.518-4.125 18.208l46.792 39zM533.333-32.667l469.333-61.333v-44.667h-469.333v106z" />
<glyph unicode="&#xe69e;" glyph-name="mixing-controller-auxiliary-energy-variable-1-actuator_bg" data-tags="mixing-controller-auxiliary-energy-variable-1-actuator_bg" d="M266.667 842.667c-88.366 0-160-71.634-160-160s71.634-160 160-160c88.366 0 160 71.634 160 160s-71.634 160-160 160zM21.333 330.667v-471.792h490.667v471.792h-490.667zM533.333 330.667v-469.333h469.333v469.333h-469.333z" />
<glyph unicode="&#xe69f;" glyph-name="mixing-controller-auxiliary-energy-variable-1-actuator_fg" data-tags="mixing-controller-auxiliary-energy-variable-1-actuator_fg" d="M266.667 864c-100.148 0-181.333-81.186-181.333-181.333 0.032-95.981 74.852-175.312 170.667-180.958v-149.708h-256v-512l1024.333 0.708v512h-512.333v-0.708h-234.667v149.875c95.751 5.642 170.546 84.875 170.667 180.792 0 100.148-81.186 181.333-181.333 181.333zM266.667 842.667c88.366 0 160-71.634 160-160s-71.634-160-160-160c-88.366 0-160 71.634-160 160s71.634 160 160 160zM21.333 330.667h234.667v-85.333h-234.667v85.333zM277.333 330.667h234.667v-469.333h-490.667v85.333h405.333v21.333h-405.333v256h234.667v-43l-60.458-50.375c-7.246 5.217-15.946 8.030-24.875 8.042-23.564 0-42.667-19.103-42.667-42.667s19.103-42.667 42.667-42.667c8.929 0.012 17.629 2.824 24.875 8.042l96.292-80.25 13.667 16.417-28.167 21.958v151.5l28.167 23.458-13.667 16.417-14.5-12.083v25.208h149.333v21.333h-149.333v85.333zM533.667 330.667h469v-43.292l-469-61.292v104.583zM1002.667 266v-338.583l-469 61.292v216l469 61.292zM908.167 208.875l-41.708-69.5h-86.917c-16.046 31.826-48.449 53.284-85.868 53.333-37.343-0.024-69.69-21.358-85.547-52.497-0.063-0.245-0.090-0.286-0.118-0.327-1.283-2.38-2.488-5.028-3.572-7.738-4.556-11.155-7.079-23.353-7.104-36.137 0-53.029 42.981-96.010 96-96.010 37.443 0.033 69.865 21.496 85.665 52.784l35.835 0.55-34.667-57.792 18.333-11 41.292 68.792h98.875v0.708h0.333v21.333h-86l25.167 41.958h60.5v0.708h0.333v21.333h-47.583l35.083 58.5-18.333 11zM693.333 170.667c41.237 0 74.667-33.429 74.667-74.667 0-0.020 0-0.044 0-0.068 0-10.446-2.145-20.391-6.019-29.418-0.024 0.034-0.038 0.007-0.052-0.021-0.882-2.072-1.858-4.043-2.916-5.962-12.737-22.952-37.221-38.49-65.334-38.49-0.004 0-0.009 0-0.013 0-41.237 0-74.666 33.429-74.666 74.667 0 0.020 0 0.044 0 0.068 0 10.446 2.145 20.391 6.019 29.418 0.903 2.039 1.893 4.037 2.968 5.982 12.737 22.953 37.221 38.49 65.334 38.49 0.004 0 0.009 0 0.013 0zM256 153.208v-114.417l-46.792 39c2.702 5.69 4.111 11.909 4.125 18.208-0.014 6.3-1.423 12.518-4.125 18.208l46.792 39zM787.333 117.333h65.917l-25.167-41.958h-40.958c1.568 6.392 2.491 13.742 2.542 21.3-0.033 7.36-0.881 14.472-2.459 21.305zM533.667-32.708l469-61.292v-43.958h-469v105.25z" />
<glyph unicode="&#xe6a0;" glyph-name="mixing-controller-no-auxiliary-energy-constant-1-actuator_bg" data-tags="mixing-controller-no-auxiliary-energy-constant-1-actuator_bg" d="M266.667 842.667c-88.366 0-160-71.634-160-160s71.634-160 160-160c88.366 0 160 71.634 160 160s-71.634 160-160 160zM21.333 330.667v-471.792h490.667v471.792h-490.667zM533.333 330.667v-469.333h469.333v469.333h-469.333z" />
<glyph unicode="&#xe6a1;" glyph-name="mixing-controller-no-auxiliary-energy-constant-1-actuator_fg" data-tags="mixing-controller-no-auxiliary-energy-constant-1-actuator_fg" d="M266.667 864c-100.148 0-181.333-81.186-181.333-181.333 0.032-95.981 74.852-175.312 170.667-180.958v-149.708h-256v-512h1024v512h-746.667v149.875c95.751 5.642 170.546 84.875 170.667 180.792 0 100.148-81.186 181.333-181.333 181.333zM266.667 842.667c88.366 0 160-71.634 160-160s-71.634-160-160-160c-88.366 0-160 71.634-160 160s71.634 160 160 160zM21.333 330.667h234.667v-85.333h-234.667v85.333zM277.333 330.667h234.667v-469.333h-490.667v85.333h405.333v21.333h-405.333v256h234.667v-43l-60.458-50.375c-7.246 5.217-15.946 8.030-24.875 8.042-23.564 0-42.667-19.103-42.667-42.667s19.103-42.667 42.667-42.667c8.929 0.012 17.629 2.824 24.875 8.042l96.292-80.25 13.667 16.417-28.167 21.958v151.5l28.167 23.458-13.667 16.417-14.5-12.083v25.208h149.333v21.333h-149.333v85.333zM533.333 330.667h469.333v-44l-469.333-61.333v105.333zM1002.667 266v-339.333l-469.333 61.333v216.667l469.333 61.333zM746.667 181.333v-170.667h21.333v42.667h170.667v21.333h-170.667v42.667h170.667v21.333h-170.667v42.667h-21.333zM256 153.208v-114.417l-46.792 39c2.702 5.69 4.111 11.909 4.125 18.208-0.014 6.3-1.423 12.518-4.125 18.208l46.792 39zM533.333-32.667l469.333-61.333v-44.667h-469.333v106z" />
<glyph unicode="&#xe6a2;" glyph-name="mixing-controller-no-auxiliary-energy-variable-1-actuator_bg" data-tags="mixing-controller-no-auxiliary-energy-variable-1-actuator_bg" d="M266.667 842.667c-88.366 0-160-71.634-160-160s71.634-160 160-160c88.366 0 160 71.634 160 160s-71.634 160-160 160zM21.333 330.667v-471.792h490.667v471.792h-490.667zM533.333 330.667v-469.333h469.333v469.333h-469.333z" />
<glyph unicode="&#xe6a3;" glyph-name="mixing-controller-no-auxiliary-energy-variable-1-actuator_fg" data-tags="mixing-controller-no-auxiliary-energy-variable-1-actuator_fg" d="M266.667 864c-100.148 0-181.333-81.186-181.333-181.333 0.032-95.981 74.852-175.312 170.667-180.958v-149.708h-256v-512h1024v512h-746.667v149.875c95.751 5.642 170.546 84.875 170.667 180.792 0 100.148-81.186 181.333-181.333 181.333zM266.667 842.667c88.366 0 160-71.634 160-160s-71.634-160-160-160c-88.366 0-160 71.634-160 160s71.634 160 160 160zM21.333 330.667h234.667v-85.333h-234.667v85.333zM277.333 330.667h234.333v-469.333h-490.333v85.333h405.333v21.333h-405.333v256h234.667v-43l-60.458-50.375c-7.246 5.217-15.946 8.030-24.875 8.042-23.564 0-42.667-19.103-42.667-42.667s19.103-42.667 42.667-42.667c8.929 0.012 17.629 2.824 24.875 8.042l96.292-80.25 13.667 16.417-28.167 21.958v151.5l28.167 23.458-13.667 16.417-14.5-12.083v25.208h149.333v21.333h-149.333v85.333zM533.333 330.667h469v-44l-469-61.292v105.292zM1002.333 265.958v-339.25l-469 61.292v216.667l469 61.292zM907.833 208.167l-41.708-69.5h-98.125v42.667h-21.333v-170.667h21.333v42.667h46.917l-35.083-58.5 18.333-11 41.708 69.5h98.792v21.333h-86l25.583 42.667h60.417v21.333h-47.583l35.083 58.5-18.333 11zM256 153.208v-114.417l-46.792 39c2.702 5.69 4.111 11.909 4.125 18.208-0.014 6.3-1.423 12.518-4.125 18.208l46.792 39zM768 117.333h85.333l-25.583-42.667h-59.75v42.667zM533.333-32.708l469-61.292v-44.667h-469v105.958z" />
<glyph unicode="&#xe6a4;" glyph-name="mixer-controller-constant-flow-rate-2-actuators_bg" data-tags="mixer-controller-constant-flow-rate-2-actuators_bg" d="M266.667 842.667c-53.019 0-96-42.981-96-96s42.981-96 96-96c53.019 0 96 42.981 96 96s-42.981 96-96 96zM21.333 565.333v-426.667h490.667v426.667h-490.667zM533.333 565.333v-426.667h469.333v426.667h-469.333zM266.667 53.333c-53.019 0-96-42.981-96-96s42.981-96 96-96c53.019 0 96 42.981 96 96s-42.981 96-96 96z" />
<glyph unicode="&#xe6a5;" glyph-name="mixer-controller-constant-flow-rate-2-actuators_fg" data-tags="mixer-controller-constant-flow-rate-2-actuators_fg" d="M266.667 864c-64.801 0-117.333-52.532-117.333-117.333 0.052-61.005 46.653-111.109 106.198-116.714l0.468-43.286h-256v-469.333h256v-43.25c-60.014-5.641-106.614-55.745-106.667-116.745 0-64.807 52.532-117.339 117.333-117.339s117.333 52.532 117.333 117.333c-0.030 61.022-46.639 111.149-106.198 116.756l-0.468 43.244h746.667v469.333h-746.667v43.208c60.028 5.642 106.637 55.769 106.667 116.789 0 64.805-52.532 117.336-117.333 117.336zM266.667 842.667c53.019 0 96-42.981 96-96s-42.981-96-96-96c-53.019 0-96 42.981-96 96s42.981 96 96 96zM21.333 565.333h234.667v-64h-234.667v64zM277.333 565.333h234.667v-426.667h-234.667v64h149.333v21.333h-149.333v25.208l14.5-12.083 13.667 16.417-96.292 80.25c2.702 5.69 4.111 11.909 4.125 18.208-0.007 3.15-0.35 6.28-1.042 9.333s-1.732 6.030-3.083 8.875l96.292 80.25-13.667 16.417-14.5-12.083v25.208h149.333v21.333h-149.333v64zM533.333 565.333h469.333v-42.667l-469.333-61.333v104zM1002.667 501.333v-298.667l-469.333 61.333v176l469.333 61.333zM21.333 480h234.667v-43l-60.458-50.375c-3.623 2.609-7.595 4.602-11.792 5.958s-8.619 2.077-13.083 2.083c-23.564 0-42.667-19.103-42.667-42.667s19.103-42.667 42.667-42.667c8.929 0.012 17.629 2.824 24.875 8.042l60.458-50.375v-43h-234.667v256zM768 394.667v-21.333h170.667v21.333h-170.667zM768 330.667v-21.333h170.667v21.333h-170.667zM533.333 242.667l469.333-61.333v-42.667h-469.333v104zM21.333 202.667h234.667v-64h-234.667v64zM266.667 53.333c53.019 0 96-42.981 96-96s-42.981-96-96-96c-53.019 0-96 42.981-96 96s42.981 96 96 96z" />
<glyph unicode="&#xe6a6;" glyph-name="mixing-chamber-with-power-flaps_bg" data-tags="mixing-chamber-with-power-flaps_bg" d="M224 842.667c-76.583 0-138.667-62.083-138.667-138.667s62.083-138.667 138.667-138.667c76.583 0 138.667 62.083 138.667 138.667s-62.083 138.667-138.667 138.667zM234.667 394.667v-533.333h532.792l0.542 533.333h-533.333z" />
<glyph unicode="&#xe6a7;" glyph-name="mixing-chamber-with-power-flaps_fg" data-tags="mixing-chamber-with-power-flaps_fg" d="M224 864c-88.366 0-160-71.634-160-160s71.634-160 160-160c88.366 0 160 71.634 160 160s-71.634 160-160 160zM224 544h-10.667v-259.083l-69.292-39.583 10.583-18.542 58.708 33.542v-57.667h0.375l-0.083-64h-15.542l-91.417 64v-64h-106.667v-21.333h106.667v-64l91.417 64h15.542l-0.125-121.75-69.458-39.667 10.583-18.5 58.833 33.625-0.125-131.042h575.417l0.583 576h-121.833l-39.583 69.292-18.5-10.583 33.542-58.708h-130.958v15.25l64 91.417h-64v106.667h-21.333v-106.667h-64l64-91.417v-15.25h-100.5l-39.583 69.292-18.5-10.583 33.542-58.708h-130.958v128h-10.667zM224 842.667c76.583 0 138.667-62.083 138.667-138.667s-62.083-138.667-138.667-138.667c-76.583 0-138.667 62.083-138.667 138.667s62.083 138.667 138.667 138.667zM234.667 394.667h143.167l39.583-69.292 18.5 10.583-33.542 58.708h88.292v-106.667h21.333v106.667h143.167l39.583-69.292 18.5 10.583-33.542 58.708h88.292v-533.333h-533.333v121.833l69.292 39.583-10.583 18.5-58.708-33.542v109.625h106.667v21.333h-106.667v133.875l69.292 39.583-10.583 18.542-58.708-33.542v97.542zM917.333 202.667v-64h-128v-21.333h128v-64l106.667 74.667-106.667 74.667z" />
<glyph unicode="&#xe6a8;" glyph-name="mixing-chamber-with-power-flaps-and-mixing-tube_bg" data-tags="mixing-chamber-with-power-flaps-and-mixing-tube_bg" d="M224 842.667c-76.583 0-138.667-62.083-138.667-138.667s62.083-138.667 138.667-138.667c76.583 0 138.667 62.083 138.667 138.667s-62.083 138.667-138.667 138.667zM234.667 394.667v-533.333h532.792l0.542 533.333h-533.333z" />
<glyph unicode="&#xe6a9;" glyph-name="mixing-chamber-with-power-flaps-and-mixing-tube_fg" data-tags="mixing-chamber-with-power-flaps-and-mixing-tube_fg" d="M224 864c-88.366 0-160-71.634-160-160s71.634-160 160-160c88.366 0 160 71.634 160 160s-71.634 160-160 160zM224 544h-10.667v-259.083l-69.292-39.583 10.583-18.542 58.708 33.542v-57.667h0.375l-0.083-64h-15.542l-91.417 64v-64h-106.667v-21.333h106.667v-64l91.417 64h15.542l-0.125-121.75-69.458-39.667 10.583-18.5 58.833 33.625-0.125-131.042h575.417l0.583 576h-121.833l-39.583 69.292-18.5-10.583 33.542-58.708h-130.958v15.25l64 91.417h-64v106.667h-21.333v-106.667h-64l64-91.417v-15.25h-100.5l-39.583 69.292-18.5-10.583 33.542-58.708h-130.958v128h-10.667zM224 842.667c76.583 0 138.667-62.083 138.667-138.667s-62.083-138.667-138.667-138.667c-76.583 0-138.667 62.083-138.667 138.667s62.083 138.667 138.667 138.667zM234.667 394.667h143.167l39.583-69.292 18.5 10.583-33.542 58.708h88.292v-490.667h106.667v21.333h-85.333v64h85.333v21.333h-85.333v64h85.333v21.333h-85.333v64h85.333v21.333h-85.333v64h85.333v21.333h-85.333v128h143.167l39.583-69.292 18.5 10.583-33.542 58.708h88.292v-533.333h-533.333v121.833l69.292 39.583-10.583 18.5-58.708-33.542v109.625h106.667v21.333h-106.667v133.875l69.292 39.583-10.583 18.542-58.708-33.542v97.542zM917.333 202.667v-64h-128v-21.333h128v-64l106.667 74.667-106.667 74.667z" />
<glyph unicode="&#xe6aa;" glyph-name="distribution-chamber-with-flaps_bg" data-tags="distribution-chamber-with-flaps_bg" d="M800 842.667c-76.583 0-138.667-62.083-138.667-138.667s62.083-138.667 138.667-138.667c76.583 0 138.667 62.083 138.667 138.667s-62.083 138.667-138.667 138.667zM256 394.667v-533.333h533.333v533.333h-533.333z" />
<glyph unicode="&#xe6ab;" glyph-name="distribution-chamber-with-flaps_fg" data-tags="distribution-chamber-with-flaps_fg" d="M800 864c-88.366 0-160-71.634-160-160s71.634-160 160-160c88.366 0 160 71.634 160 160s-71.634 160-160 160zM800 544h-10.667v-128h-126.375l43.958 43.583-15 15.125-59.25-58.708h-99.333v128h64l-74.667 106.667-74.667-106.667h64v-128h-126.375l43.958 43.583-15 15.125-59.25-58.708h-120.667l0.583-576h575.417l-0.125 134.458 58.042 57.542-15 15.125-43.083-42.708-0.125 112.917h106.958v-64l106.667 74.667-106.667 74.667v-64h-106.958l0.083 123.375 58.125 57.583-15 15.125-43.083-42.708 0.167 251.958h-10.667zM800 842.667c76.583 0 138.667-62.083 138.667-138.667s-62.083-138.667-138.667-138.667c-76.583 0-138.667 62.083-138.667 138.667s62.083 138.667 138.667 138.667zM256 394.667h77.833l-41.417-41.042 15-15.125 56.667 56.167h147.917v-106.667h21.333v106.667h77.833l-41.417-41.042 15-15.125 56.667 56.167h147.917v-123.583l-57.917-57.375 15-15.125 42.917 42.542v-102.458h-106.667v-21.333h106.667v-133.875l-57.917-57.417 15-15.125 42.917 42.542v-92.125h-533.333v533.333zM128 202.667v-64h-128v-21.333h128v-64l91.417 64h15.25v21.333h-15.25l-91.417 64z" />
<glyph unicode="&#xe6ac;" glyph-name="sound-suppressor_bg" data-tags="sound-suppressor_bg" d="M42.667 821.333h896v-938.667h-896z" />
<glyph unicode="&#xe6ad;" glyph-name="sound-suppressor_fg" data-tags="sound-suppressor_fg" d="M0 864v-1024h981.333v1024h-981.333zM42.667 821.333h426.667v-469.333h42.667v469.333h426.667v-938.667h-213.333v469.333h-42.667v-469.333h-384v469.333h-42.667v-469.333h-213.333v938.667z" />
<glyph unicode="&#xe6af;" glyph-name="flap_fg" data-tags="flap_fg" d="M966.25 836.417l-380.167-380.167c-20.582 14.815-46.29 23.708-74.073 23.75-70.703 0-128.010-57.308-128.010-128 0.087-27.773 9.005-53.447 24.093-74.378l-380.509-379.872 30.167-30.167 380.167 380.167c20.582-14.815 46.29-23.708 74.073-23.75 70.703 0 128.010 57.308 128.010 128-0.087 27.773-9.005 53.447-24.093 74.378l380.509 379.872-30.167 30.167z" />
<glyph unicode="&#xe6b1;" glyph-name="double-flap-1_fg" data-tags="double-flap-1_fg" horiz-adv-x="512" d="M483.115 842.539l-190.080-190.080c-10.291 7.401-23.142 11.843-37.030 11.861-35.351 0-64.005-28.654-64.005-64 0.055-13.887 4.524-26.72 12.076-37.18l-190.316-189.934 15.104-15.083 190.080 190.080c10.294-7.413 23.154-11.863 37.051-11.883 35.351 0 64.005 28.654 64.005 64-0.050 13.895-4.52 26.736-12.076 37.202l190.295 189.934-15.104 15.083zM483.115 338.219l-190.080-190.080c-10.291 7.401-23.142 11.843-37.030 11.861-35.351 0-64.005-28.654-64.005-64 0.055-13.887 4.524-26.72 12.076-37.18l-190.316-189.934 15.104-15.104 190.080 190.080c10.296-7.406 23.156-11.848 37.053-11.861 35.349 0 64.003 28.654 64.003 64-0.055 13.887-4.524 26.72-12.076 37.18l190.295 189.934-15.104 15.104z" />
<glyph unicode="&#xe6b3;" glyph-name="double-flap-2_fg" data-tags="double-flap-2_fg" horiz-adv-x="512" d="M483.115 842.539l-190.080-190.080c-10.291 7.401-23.142 11.843-37.030 11.861-35.351 0-64.005-28.654-64.005-64 0.055-13.887 4.524-26.72 12.076-37.18l-190.316-189.934 15.104-15.083 190.080 190.080c10.294-7.413 23.154-11.863 37.051-11.883 35.351 0 64.005 28.654 64.005 64-0.050 13.895-4.52 26.736-12.076 37.202l190.295 189.934-15.104 15.083zM28.885 338.219l-15.104-15.104 190.144-190.123c-7.415-10.274-11.877-23.107-11.925-36.98 0-35.358 28.654-64.012 64-64.012 13.895 0.025 26.746 4.474 37.225 12.013l189.89-190.21 15.104 15.083-190.144 190.123c7.415 10.274 11.877 23.107 11.925 36.98 0 35.358-28.654 64.012-64 64.012-13.895-0.025-26.746-4.474-37.225-12.013l-189.89 190.21z" />
<glyph unicode="&#xe6b5;" glyph-name="double-flap-3_fg" data-tags="double-flap-3_fg" horiz-adv-x="512" d="M256 661.248c-16.384 0-32.747-6.187-45.227-18.709-9.387-9.493-15.573-21.547-17.771-34.709l-193.003 0.171v-21.333l192.96-0.085c2.197-13.099 8.405-25.173 17.792-34.56 24.96-25.024 65.493-25.024 90.453 0 9.387 9.387 15.573 21.483 17.707 34.56l193.088 0.085v21.333l-192.96-0.085c-2.197 13.099-8.405 25.216-17.792 34.624-12.416 12.416-28.8 18.624-45.227 18.624zM256 149.248c-16.384 0-32.747-6.251-45.227-18.773-9.387-9.387-15.616-21.461-17.813-34.56l-192.96 0.085v-21.333l193.003-0.085c2.176-13.077 8.384-25.173 17.749-34.56 24.96-25.024 65.493-25.024 90.453 0 9.387 9.387 15.573 21.461 17.749 34.56l193.045 0.085v21.333l-193.003-0.085c-2.176 13.099-8.384 25.173-17.749 34.56-12.416 12.523-28.8 18.773-45.227 18.773z" />
<glyph unicode="&#xe6b6;" glyph-name="double-flap-border-1_bg" data-tags="double-flap-border-1_bg" horiz-adv-x="512" d="M0 864h512v-1024h-512z" />
<glyph unicode="&#xe6b7;" glyph-name="double-flap-border-1_fg" data-tags="double-flap-border-1_fg" horiz-adv-x="512" d="M0 864v-1024h512v1024h-512zM21.333 842.667h469.333v-981.333h-469.333v981.333zM461.909 821.333l-168.875-168.875c-10.291 7.401-23.142 11.843-37.030 11.861-35.351 0-64.005-28.654-64.005-64 0.055-13.887 4.524-26.72 12.076-37.18l-161.409-161.049v-30.165l176.299 176.277c10.289-7.409 23.14-11.858 37.029-11.883 35.352 0 64.006 28.654 64.006 64-0.050 13.895-4.52 26.736-12.076 37.202l161.409 161.092v22.72h-7.424zM469.333 324.416l-176.299-176.299c-10.289 7.409-23.14 11.858-37.029 11.883-35.352 0-64.006-28.654-64.006-64 0.055-13.887 4.524-26.72 12.076-37.18l-161.409-161.092v-15.061h15.083l161.216 161.216c10.289-7.409 23.14-11.858 37.029-11.883 35.352 0 64.006 28.654 64.006 64-0.055 13.887-4.524 26.72-12.076 37.18l161.409 161.092v30.144z" />
<glyph unicode="&#xe6b8;" glyph-name="double-flap-border-2_bg" data-tags="double-flap-border-2_bg" horiz-adv-x="512" d="M0 864h512v-1024h-512z" />
<glyph unicode="&#xe6b9;" glyph-name="double-flap-border-2_fg" data-tags="double-flap-border-2_fg" horiz-adv-x="512" d="M0 864v-1024h512v1024h-512zM21.333 842.667h469.333v-981.333h-469.333v981.333zM461.909 821.333l-168.875-168.875c-10.291 7.401-23.142 11.843-37.030 11.861-35.351 0-64.005-28.654-64.005-64 0.055-13.887 4.524-26.72 12.076-37.18l-161.409-161.049v-30.165l176.299 176.277c10.289-7.409 23.14-11.858 37.029-11.883 35.352 0 64.006 28.654 64.006 64-0.050 13.895-4.52 26.736-12.076 37.202l161.409 161.092v22.72h-7.424zM42.667 324.416v-30.165l161.28-161.28c-7.419-10.266-11.887-23.091-11.947-36.956 0-35.361 28.654-64.014 64-64.014 13.895 0.025 26.746 4.474 37.225 12.013l161.026-161.346h15.083v15.083l-161.28 161.28c7.419 10.266 11.887 23.091 11.947 36.956 0 35.361-28.654 64.014-64 64.014-13.895-0.025-26.746-4.474-37.225-12.013l-176.108 176.429z" />
<glyph unicode="&#xe6ba;" glyph-name="double-flap-border-3_bg" data-tags="double-flap-border-3_bg" horiz-adv-x="512" d="M0 864h512v-1024h-512z" />
<glyph unicode="&#xe6bb;" glyph-name="double-flap-border-3_fg" data-tags="double-flap-border-3_fg" horiz-adv-x="512" d="M0 864v-1024h512v1024h-512zM21.333 842.667h469.333v-981.333h-469.333v981.333zM256 661.248c-16.384 0-32.747-6.187-45.227-18.709-9.387-9.493-15.573-21.547-17.771-34.709l-150.336 0.171v-21.333l150.293-0.085c2.197-13.099 8.405-25.173 17.792-34.56 24.96-25.024 65.493-25.024 90.453 0 9.387 9.387 15.573 21.483 17.707 34.56l150.421 0.085v21.333l-150.293-0.085c-2.197 13.099-8.405 25.216-17.792 34.624-12.416 12.416-28.8 18.624-45.227 18.624zM256 149.248c-16.384 0-32.747-6.251-45.227-18.773-9.387-9.387-15.616-21.461-17.813-34.56l-150.293 0.085v-21.333l150.336-0.085c2.176-13.077 8.384-25.173 17.749-34.56 24.96-25.024 65.493-25.024 90.453 0 9.387 9.387 15.573 21.461 17.749 34.56l150.379 0.085v21.333l-150.336-0.085c-2.176 13.099-8.384 25.173-17.749 34.56-12.416 12.523-28.8 18.773-45.227 18.773z" />
<glyph unicode="&#xe6bc;" glyph-name="double-flap-border-4_bg" data-tags="double-flap-border-4_bg" horiz-adv-x="512" d="M0 864v-1024h512v1024z" />
<glyph unicode="&#xe6bd;" glyph-name="double-flap-border-4_fg" data-tags="double-flap-border-4_fg" horiz-adv-x="512" d="M0 864v-1024h512v1024h-512zM21.333 842.667h469.333v-981.333h-469.333v981.333zM399.253 755.712l-301.717-301.739 15.083-15.061 143.36 143.36v-156.693c-36.139-5.248-64-36.011-64-73.6s27.861-68.352 64-73.6v-177.92l-143.253 143.232-15.083-15.083 301.717-301.696 15.104 15.083-137.131 137.152v199.253c36.139 5.248 64 36.011 64 73.6s-27.861 68.352-64 73.6v178.027l137.003 137.003-15.083 15.083z" />
<glyph unicode="&#xe6be;" glyph-name="heat-exchanger_bg2" data-tags="heat-exchanger_bg" d="M0 864v-1024h1024v1024z" />
<glyph unicode="&#xe6bf;" glyph-name="heat-exchanger_fg2" data-tags="heat-exchanger_fg" d="M0 864v-1024h1024v1024h-1024zM42.667 821.333h442.453l-356.267-469.333h682.667l-316.672-456.747-9.173-12.587h-443.008v938.667zM538.453 821.333h442.88v-938.667h-443.307l357.205 512h-682.667l316.672 414.080 9.216 12.587z" />
<glyph unicode="&#xe6c0;" glyph-name="diode_bg" data-tags="diode_bg" d="M42.667 864v-1024h896v1024z" />
<glyph unicode="&#xe6c1;" glyph-name="diode_fg" data-tags="diode_fg" d="M42.667 864v-1024h896v1024h-896zM85.333 821.333h810.667v-938.667h-810.667v938.667zM469.333 778.667v-165.333l-3.072-5.333h-295.595v-42.667h271.019l-271.019-469.333h298.667v-170.667h42.667v170.667h298.667l-271.019 469.333h271.019v42.667h-295.595l-3.072 5.333v165.333h-42.667zM469.333 528.085v-389.419h-224.853l224.853 389.419zM512 528.085l224.853-389.419h-224.853v389.419z" />
<glyph unicode="&#xe6c2;" glyph-name="circuit-braker_bg" data-tags="circuit-braker_bg" d="M0 864v-1024h1024v1024z" />
<glyph unicode="&#xe6c3;" glyph-name="circuit-braker_fg" data-tags="circuit-braker_fg" d="M0 864v-1024h1024v1024zM42.667 821.333h938.667v-938.667h-938.667zM554.667 778.667v-256h128v42.667h-85.333v213.333zM789.333 587.733l-111.488-193.067h-165.845l-85.333-85.333-85.333 85.333h-128v85.333h-42.667v-256h42.667v128h110.336l102.997-102.997 102.997 102.997h123.605l-98.603-170.667v-256h42.667v244.651l228.907 396.373z" />
<glyph unicode="&#xe6c4;" glyph-name="blow-down-valve_bg" data-tags="blow-down-valve_bg" d="M298.667 821.333v-384h384v384h-384zM42.667 327.979v-421.291l404.053 209.323-404.053 211.968zM938.667 327.979l-405.333-211.968 405.333-210.773v422.699z" />
<glyph unicode="&#xe6c5;" glyph-name="blow-down-valve_fg" data-tags="blow-down-valve_fg" d="M256 864v-469.333h213.333v-245.333l-469.333 242.688v-552.021l490.667 253.355 490.667-253.355v554.667l-469.333-245.333v245.333h213.333v469.333h-469.333zM328.832 821.333h353.835v-353.835l-353.835 353.835zM298.667 791.168l353.835-353.835h-353.835v353.835zM42.667 327.979l404.053-211.968-404.053-209.365v421.333zM938.667 327.979v-422.656l-405.333 210.773 405.333 211.968z" />
<glyph unicode="&#xe6c6;" glyph-name="ceiling-diffuser_bg" data-tags="ceiling-diffuser_bg" d="M512 664.917c31.445 0 56.917-25.472 56.917-56.917s-25.472-56.917-56.917-56.917c-31.445 0-56.917 25.472-56.917 56.917s25.472 56.917 56.917 56.917zM357.845 480.256l308.309-0.256 262.997-256h-833.28z" />
<glyph unicode="&#xe6c7;" glyph-name="ceiling-diffuser_fg" data-tags="ceiling-diffuser_fg" d="M512 693.333c-47.147 0-85.333-38.187-85.333-85.333s38.187-85.333 85.333-85.333 85.333 38.187 85.333 85.333-38.187 85.333-85.333 85.333zM512 522.667h-170.667l-341.333-341.333h118.4l-118.4-157.867 34.133-25.6 110.933 147.883 110.933-147.883 34.133 25.6-118.357 157.867h313.6l-118.443-157.867 34.133-25.6 110.933 147.883 110.933-147.925 34.133 25.6-118.4 157.867h313.6l-118.4-157.824 34.133-25.6 110.933 147.883 110.933-147.925 34.133 25.6-118.4 157.867h118.4l-341.333 341.333h-170.667zM512 664.917c31.445 0 56.917-25.472 56.917-56.917s-25.472-56.917-56.917-56.917c-31.445 0-56.917 25.472-56.917 56.917s25.472 56.917 56.917 56.917zM357.845 480.256l308.309-0.256 262.997-256h-833.28l261.973 256.256z" />
<glyph unicode="&#xe6c8;" glyph-name="heat-recovery-unit_bg" data-tags="heat-recovery-unit_bg" horiz-adv-x="512" d="M0 864v-1024h490.667v1024z" />
<glyph unicode="&#xe6c9;" glyph-name="heat-recovery-unit_fg" data-tags="heat-recovery-unit_fg" horiz-adv-x="512" d="M0 864v-1024h490.667v1024zM22.080 842.667h417.813l-204.587-427.669c-2.56-0.427-5.035-1.024-7.509-1.749zM463.573 842.667h5.76v-48.96l-186.581-390.080c-7.083 5.163-15.147 9.003-23.957 10.923zM21.333 794.752l187.157-390.613c-16.341-11.648-27.157-30.677-27.157-52.139 0-11.563 3.328-22.272 8.747-31.659l-168.747-352.768zM469.333 744.256v-834.987l-187.2 390.613c16.363 11.584 27.2 30.613 27.2 52.117 0 13.013-3.947 25.173-10.709 35.285zM245.333 394.539c23.616 0 42.539-18.923 42.539-42.539s-18.923-42.539-42.539-42.539-42.539 18.923-42.539 42.539 18.923 42.539 42.539 42.539zM205.227 302.592c6.827-5.547 14.72-9.707 23.467-12.096l-205.291-429.163h-2.069v56.747zM262.827 290.752l205.76-429.419h-421.504l204.331 427.307c3.925 0.363 7.723 1.067 11.413 2.133zM235.627 288.939c3.2-0.491 6.4-0.96 9.707-0.96-3.328 0-6.549 0.384-9.707 0.96zM234.667 74.667v-42.667h-42.667v-21.333h42.667v-42.667h21.333v42.667h42.667v21.333h-42.667v42.667zM192-74.667v-21.333h106.667v21.333z" />
<glyph unicode="&#xe6ca;" glyph-name="cooling-unit_bg" data-tags="cooling-unit_bg" d="M0 608v-512h1024v512z" />
<glyph unicode="&#xe6cb;" glyph-name="cooling-unit_fg" data-tags="cooling-unit_fg" d="M0 608v-512h1024v512h-1024zM21.333 586.667h234.667v-149.333h-106.667v71.083l42.667-28.416c19.627-13.077 42.667 19.093 42.667 42.667s-23.040 55.744-42.667 42.667l-53.333-35.541-53.333 35.541c-19.627 13.077-42.667-19.093-42.667-42.667s23.040-55.744 42.667-42.667l42.667 28.416v-71.083h-106.667v149.333zM277.333 586.667h469.333v-384h-469.333v384zM768 586.667h95.296l1.323-3.627 80.107-220.373h-150.656l111.531-245.333h-137.6v469.333zM886.037 586.667h116.629v-469.333h-73.6l-2.027 4.416-99.797 219.584h147.968l-89.173 245.333zM512 565.333c-94.251 0-170.667-76.416-170.667-170.667s76.416-170.667 170.667-170.667c70.251 0 133.333 43.051 158.933 108.459l0.853 0.491-0.427 0.768c7.467 19.456 11.307 40.107 11.307 60.949 0 94.251-76.416 170.667-170.667 170.667zM512 544c4.587 0 9.173-0.256 13.76-0.704l121.813-210.987c-24.384-52.928-77.333-86.891-135.573-86.976-57.856 0.064-110.464 33.536-135.040 85.909l122.453 212.139c4.181 0.427 8.384 0.64 12.587 0.64zM472 538.539l-104.491-181.035c-3.2 12.16-4.8 24.619-4.843 37.163 0 67.072 44.715 125.909 109.333 143.872zM553.365 538.048c63.893-18.411 107.904-76.864 107.947-143.36-0.064-12.053-1.6-24.064-4.544-35.755l-103.381 179.093zM501.333 437.333v-48.917l-34.56 34.56-15.104-15.061 34.56-34.56h-48.896v-21.333h48.917l-34.56-34.56 15.061-15.104 34.56 34.56v-48.917h21.333v48.917l34.56-34.56 15.104 15.061-34.56 34.56h48.917v21.333h-48.917l34.56 34.56-15.061 15.104-34.56-34.56v48.917h-21.333zM21.333 416h106.667v-298.667h-106.667v298.667zM149.333 416h106.667v-298.667h-106.667v298.667zM277.333 181.333h469.333v-64h-469.333v64z" />
<glyph unicode="&#xe6cc;" glyph-name="buffer_bg" data-tags="buffer_bg" horiz-adv-x="512" d="M256 864c-141.376 0-256-28.651-256-64v-810.667c0-16.981 26.923-32.299 70.080-43.733l-70.293-105.6h89.813l96.64 88.043c22.293-1.6 45.397-2.709 69.76-2.709 24.32 0 47.317 1.131 69.589 2.709l96.64-88.043h89.771l-70.251 105.493c43.264 11.477 70.251 26.837 70.251 43.84v810.667c0 35.349-114.624 64-256 64z" />
</font>
</defs>
</svg>
